<svg width="20" height="20" viewBox="0 0 25 24" fill="none" xmlns="http://www.w3.org/2000/svg">
<path d="M3.0625 6H5.0625H21.0625" stroke="#A30D11" stroke-width="2" stroke-linecap="round" stroke-linejoin="round"/>
<path d="M8.0625 6V4C8.0625 3.46957 8.27321 2.96086 8.64829 2.58579C9.02336 2.21071 9.53207 2 10.0625 2H14.0625C14.5929 2 15.1016 2.21071 15.4767 2.58579C15.8518 2.96086 16.0625 3.46957 16.0625 4V6M19.0625 6V20C19.0625 20.5304 18.8518 21.0391 18.4767 21.4142C18.1016 21.7893 17.5929 22 17.0625 22H7.0625C6.53207 22 6.02336 21.7893 5.64829 21.4142C5.27321 21.0391 5.0625 20.5304 5.0625 20V6H19.0625Z" stroke="#A30D11" stroke-width="2" stroke-linecap="round" stroke-linejoin="round"/>
<path d="M10.0625 11V17" stroke="#A30D11" stroke-width="2" stroke-linecap="round" stroke-linejoin="round"/>
<path d="M14.0625 11V17" stroke="#A30D11" stroke-width="2" stroke-linecap="round" stroke-linejoin="round"/>
</svg>
