<svg width="20" height="20" viewBox="0 0 25 24" fill="none" xmlns="http://www.w3.org/2000/svg">
<path d="M11.0625 4H4.0625C3.53207 4 3.02336 4.21071 2.64829 4.58579C2.27321 4.96086 2.0625 5.46957 2.0625 6V20C2.0625 20.5304 2.27321 21.0391 2.64829 21.4142C3.02336 21.7893 3.53207 22 4.0625 22H18.0625C18.5929 22 19.1016 21.7893 19.4767 21.4142C19.8518 21.0391 20.0625 20.5304 20.0625 20V13" stroke="#624DE3" stroke-width="2" stroke-linecap="round" stroke-linejoin="round"/>
<path d="M18.5625 2.5C18.9603 2.10217 19.4999 1.87868 20.0625 1.87868C20.6251 1.87868 21.1647 2.10217 21.5625 2.5C21.9603 2.89782 22.1838 3.43739 22.1838 4C22.1838 4.56261 21.9603 5.10217 21.5625 5.5L12.0625 15L8.0625 16L9.0625 12L18.5625 2.5Z" stroke="#624DE3" stroke-width="2" stroke-linecap="round" stroke-linejoin="round"/>
</svg>
