<svg width="32" height="32" viewBox="0 0 32 32" fill="currentColor" xmlns="http://www.w3.org/2000/svg">
<path d="M15.2933 5.12133C15.4808 4.93406 15.735 4.82888 16 4.82888C16.265 4.82888 16.5192 4.93406 16.7067 5.12133L28.2933 16.708C28.3856 16.8035 28.496 16.8796 28.618 16.9319C28.7401 16.9843 28.8713 17.0118 29.0041 17.0129C29.1369 17.014 29.2685 16.9886 29.3914 16.9383C29.5143 16.888 29.6259 16.8137 29.7197 16.7197C29.8136 16.6258 29.8878 16.5141 29.938 16.3912C29.9882 16.2683 30.0135 16.1366 30.0123 16.0038C30.011 15.871 29.9834 15.7398 29.9309 15.6178C29.8785 15.4958 29.8022 15.3855 29.7067 15.2933L18.1213 3.70667C17.8428 3.42809 17.512 3.2071 17.1481 3.05634C16.7841 2.90557 16.394 2.82797 16 2.82797C15.606 2.82797 15.2159 2.90557 14.8519 3.05634C14.488 3.2071 14.1572 3.42809 13.8787 3.70667L2.29201 15.2933C2.19654 15.3856 2.12041 15.496 2.06806 15.618C2.01571 15.7401 1.98819 15.8713 1.98709 16.0041C1.986 16.1369 2.01137 16.2685 2.06171 16.3914C2.11205 16.5143 2.18635 16.6259 2.28029 16.7197C2.37422 16.8136 2.48591 16.8878 2.60883 16.938C2.73175 16.9882 2.86344 17.0135 2.99622 17.0122C3.129 17.011 3.2602 16.9834 3.38218 16.9309C3.50416 16.8785 3.61447 16.8022 3.70667 16.7067L15.2933 5.12133Z" fill="currentColor" fill-opacity="0.63"/>
<path d="M16 7.24268L26.8787 18.1213C26.9187 18.1613 26.9587 18.1987 27 18.236V26.5C27 27.88 25.88 29 24.5 29H20C19.7348 29 19.4804 28.8947 19.2929 28.7071C19.1054 28.5196 19 28.2652 19 28V22C19 21.7348 18.8946 21.4804 18.7071 21.2929C18.5196 21.1054 18.2652 21 18 21H14C13.7348 21 13.4804 21.1054 13.2929 21.2929C13.1054 21.4804 13 21.7348 13 22V28C13 28.2652 12.8946 28.5196 12.7071 28.7071C12.5196 28.8947 12.2652 29 12 29H7.5C6.83696 29 6.20107 28.7366 5.73223 28.2678C5.26339 27.7989 5 27.163 5 26.5V18.236C5.04148 18.1989 5.08194 18.1607 5.12133 18.1213L16 7.24268Z" fill="currentColor" fill-opacity="1"/>
</svg>