<svg width="32" height="32" viewBox="0 0 32 32" fill="currentColor" xmlns="http://www.w3.org/2000/svg">
<path fill-rule="evenodd" clip-rule="evenodd" d="M10 8V9H7.35068C6.07068 9 4.99868 9.96533 4.86402 11.2387L3.18002 27.2387C3.14339 27.5871 3.18042 27.9394 3.2887 28.2726C3.39699 28.6058 3.57411 28.9126 3.80858 29.173C4.04304 29.4333 4.32962 29.6415 4.64973 29.784C4.96983 29.9265 5.31631 30.0001 5.66668 30H26.3334C26.6837 30.0001 27.0302 29.9265 27.3503 29.784C27.6704 29.6415 27.957 29.4333 28.1915 29.173C28.4259 28.9126 28.603 28.6058 28.7113 28.2726C28.8196 27.9394 28.8566 27.5871 28.82 27.2387L27.136 11.2387C27.0714 10.6242 26.7816 10.0554 26.3224 9.64201C25.8632 9.22862 25.2672 8.99991 24.6494 9H22V8C22 6.4087 21.3679 4.88258 20.2427 3.75736C19.1174 2.63214 17.5913 2 16 2C14.4087 2 12.8826 2.63214 11.7574 3.75736C10.6322 4.88258 10 6.4087 10 8ZM16 4C14.9392 4 13.9217 4.42143 13.1716 5.17157C12.4214 5.92172 12 6.93913 12 8V9H20V8C20 6.93913 19.5786 5.92172 18.8284 5.17157C18.0783 4.42143 17.0609 4 16 4ZM12 15C12 16.0609 12.4214 17.0783 13.1716 17.8284C13.9217 18.5786 14.9392 19 16 19C17.0609 19 18.0783 18.5786 18.8284 17.8284C19.5786 17.0783 20 16.0609 20 15V14C20 13.7348 20.1054 13.4804 20.2929 13.2929C20.4804 13.1054 20.7348 13 21 13C21.2652 13 21.5196 13.1054 21.7071 13.2929C21.8947 13.4804 22 13.7348 22 14V15C22 16.5913 21.3679 18.1174 20.2427 19.2426C19.1174 20.3679 17.5913 21 16 21C14.4087 21 12.8826 20.3679 11.7574 19.2426C10.6322 18.1174 10 16.5913 10 15V14C10 13.7348 10.1054 13.4804 10.2929 13.2929C10.4804 13.1054 10.7348 13 11 13C11.2652 13 11.5196 13.1054 11.7071 13.2929C11.8947 13.4804 12 13.7348 12 14V15Z" fill="currentColor" fill-opacity="1"/>
</svg>
