<svg width="32" height="32" viewBox="0 0 32 32" fill="currentColor" xmlns="http://www.w3.org/2000/svg">
<path fill-rule="evenodd" clip-rule="evenodd" d="M15.7707 3C14.5493 3 13.5053 3.884 13.304 5.08933L13.1827 5.82133C13.149 6.00508 13.0676 6.17673 12.9466 6.31903C12.8256 6.46134 12.6693 6.56928 12.4933 6.632C12.2779 6.71259 12.0653 6.80065 11.856 6.896C11.6872 6.97626 11.5002 7.01062 11.3139 6.99564C11.1276 6.98066 10.9485 6.91686 10.7947 6.81067L10.1907 6.37867C9.70906 6.03458 9.12099 5.87254 8.53111 5.92137C7.94123 5.9702 7.38781 6.22674 6.96933 6.64533L6.64533 6.96933C6.22674 7.38781 5.9702 7.94123 5.92137 8.53111C5.87254 9.12099 6.03458 9.70906 6.37867 10.1907L6.81067 10.7947C6.91686 10.9485 6.98066 11.1276 6.99564 11.3139C7.01062 11.5002 6.97626 11.6872 6.896 11.856C6.80065 12.0653 6.71259 12.2779 6.632 12.4933C6.56928 12.6693 6.46134 12.8256 6.31903 12.9466C6.17673 13.0676 6.00508 13.149 5.82133 13.1827L5.088 13.3053C4.50456 13.4028 3.97458 13.704 3.59228 14.1554C3.20998 14.6068 3.00011 15.1791 3 15.7707V16.2293C3 17.4507 3.884 18.4947 5.08933 18.696L5.82133 18.8173C6.196 18.88 6.49867 19.1507 6.632 19.5067C6.712 19.7227 6.80133 19.9347 6.896 20.144C6.97626 20.3128 7.01062 20.4998 6.99564 20.6861C6.98066 20.8724 6.91686 21.0515 6.81067 21.2053L6.37867 21.8093C6.03458 22.2909 5.87254 22.879 5.92137 23.4689C5.9702 24.0588 6.22674 24.6122 6.64533 25.0307L6.96933 25.3547C7.83333 26.2187 9.196 26.332 10.1907 25.6213L10.7947 25.1893C10.9485 25.0831 11.1276 25.0193 11.3139 25.0044C11.5002 24.9894 11.6872 25.0237 11.856 25.104C12.0653 25.1987 12.2773 25.2867 12.4933 25.368C12.8493 25.5013 13.12 25.804 13.1827 26.1787L13.3053 26.912C13.5053 28.116 14.548 29 15.7707 29H16.2293C17.4507 29 18.4947 28.116 18.696 26.9107L18.8173 26.1787C18.851 25.9949 18.9324 25.8233 19.0534 25.681C19.1744 25.5387 19.3307 25.4307 19.5067 25.368C19.7221 25.2873 19.9346 25.1993 20.144 25.104C20.3128 25.0237 20.4998 24.9894 20.6861 25.0044C20.8724 25.0193 21.0515 25.0831 21.2053 25.1893L21.8093 25.6213C22.2909 25.9654 22.879 26.1275 23.4689 26.0786C24.0588 26.0298 24.6122 25.7733 25.0307 25.3547L25.3547 25.0307C26.2187 24.1667 26.332 22.804 25.6213 21.8093L25.1893 21.2053C25.0831 21.0515 25.0193 20.8724 25.0044 20.6861C24.9894 20.4998 25.0237 20.3128 25.104 20.144C25.1987 19.9347 25.2867 19.7227 25.368 19.5067C25.5013 19.1507 25.804 18.88 26.1787 18.8173L26.912 18.696C27.4957 18.5985 28.0258 18.2971 28.4082 17.8454C28.7905 17.3937 29.0002 16.8211 29 16.2293V15.7707C29 14.5493 28.116 13.5053 26.9107 13.304L26.1787 13.1827C25.9949 13.149 25.8233 13.0676 25.681 12.9466C25.5387 12.8256 25.4307 12.6693 25.368 12.4933C25.2873 12.2779 25.1993 12.0653 25.104 11.856C25.0237 11.6872 24.9894 11.5002 25.0044 11.3139C25.0193 11.1276 25.0831 10.9485 25.1893 10.7947L25.6213 10.1907C25.9654 9.70906 26.1275 9.12099 26.0786 8.53111C26.0298 7.94123 25.7733 7.38781 25.3547 6.96933L25.0307 6.64533C24.6122 6.22674 24.0588 5.9702 23.4689 5.92137C22.879 5.87254 22.2909 6.03458 21.8093 6.37867L21.2053 6.81067C21.0515 6.91686 20.8724 6.98066 20.6861 6.99564C20.4998 7.01062 20.3128 6.97626 20.144 6.896C19.9347 6.80066 19.7221 6.71261 19.5067 6.632C19.3307 6.56928 19.1744 6.46134 19.0534 6.31903C18.9324 6.17673 18.851 6.00508 18.8173 5.82133L18.696 5.088C18.5985 4.50433 18.2971 3.97418 17.8454 3.59185C17.3937 3.20952 16.8211 2.9998 16.2293 3H15.7707ZM16 21C17.3261 21 18.5979 20.4732 19.5355 19.5355C20.4732 18.5979 21 17.3261 21 16C21 14.6739 20.4732 13.4021 19.5355 12.4645C18.5979 11.5268 17.3261 11 16 11C14.6739 11 13.4021 11.5268 12.4645 12.4645C11.5268 13.4021 11 14.6739 11 16C11 17.3261 11.5268 18.5979 12.4645 19.5355C13.4021 20.4732 14.6739 21 16 21Z" fill="currentColor" fill-opacity="1"/>
</svg>
