<svg xmlns="http://www.w3.org/2000/svg" viewBox="0 0 1450 1300"><g data-name="Layer 1"><path d="M316.56 772.24c-.06.63-.11 1.23-.15 1.79s-.11 1.25-.16 1.8h-3.59c0-.55.1-1.15.15-1.8s.1-1.16.14-1.79c0-.38.06-.78.1-1.19a923 923 0 0 0-1.53-151.71c-3.78-39.77-11.27-86.9-25.74-133.26l-1.17-3.72q-2.69-8.37-5.68-16.67c-15-41.54-36.12-81.47-65.75-113.74l2.64-2.42C242.89 379 265 416.91 281.7 462.38q2.71 7.42 5.25 15.11c.18.53.35 1.06.52 1.6.41 1.26.82 2.51 1.21 3.77 12.79 40.41 21.67 86.21 26.41 136.21a923 923 0 0 1 1.47 153.17"/><path d="M314.28 775.83h-3.71c-.15-.61-.3-1.2-.46-1.8s-.3-1.2-.46-1.79c-15.62-59.91-37.54-103-58.75-133.32-.68-1-1.35-1.94-2-2.9q-2.81-3.9-5.56-7.51A265 265 0 0 0 222.18 604c-32.91-33.57-60.81-42.7-61.09-42.78l1.08-3.42c1.17.37 29.05 9.49 62.58 43.69a272 272 0 0 1 19.81 22.67q4 5.13 7.85 10.53c.68.93 1.35 1.89 2 2.84a343 343 0 0 1 22.21 36.83c14.87 28.48 27.09 60.9 36.41 96.66.11.39.22.79.31 1.19.16.59.32 1.19.46 1.79s.34 1.22.48 1.83"/><path d="M318.41 428.4c-11.22 17.43-52.27 18.29-69.8 18.66l-3.53.09c-6.05.19-9.27 4.51-14.13 11.05-6.93 9.31-16.42 22.06-40.59 29.94a16.3 16.3 0 0 1-5.1.82c-14.06 0-29-18.36-43.64-53.72l-.5-1.19-4.93-12.74-.56-1.56c-3.12-8.62-6.14-17.87-9-27.49l-.49-1.62-2.55-9-.34-1.26c-9.66-35.58-15.4-70.26-14-84.32 1-9.25 4.73-16.26 11.24-20.86 14.4-10.15 36.89-4.8 37.83-4.57 27.44 6.14 57.19 26.75 77.32 43l1.41 1.13 7.81 6.53.87.76c4.58 3.92 9.26 8.14 13.91 12.51l2.2 2.07 7.59 7.42.51.51c23.45 23.53 42.17 47.81 48.85 63.38 3.44 7.87 3.29 14.76-.38 20.46m-66 132.46c-2.49 15.81-31.19 29.24-43.45 35l-2.47 1.14c-4.21 2-5.13 6.07-6.52 12.22-2 8.73-4.7 20.69-19.3 33.81a12.6 12.6 0 0 1-3.34 2.17c-9.93 4.39-26.24-3.89-47.59-24.29l-.72-.69-7.46-7.45-.89-.92a384 384 0 0 1-14.92-16.6l-.85-1-4.61-5.56-.64-.78c-17.93-22.1-32.81-44.79-36.19-55.16-2.22-6.83-1.74-13 1.42-18.24 7-11.66 24.54-14.91 25.28-15 21.28-4.24 48.73 1 68 6.18l1.35.36 7.55 2.17.85.26c4.46 1.35 9.08 2.86 13.73 4.49l2.2.77 7.67 2.87.53.21c23.9 9.28 44.7 20.57 54.27 29.48 4.85 4.48 6.91 9.39 6.1 14.56" style="mix-blend-mode:multiply" fill="#d4e7ff"/><path d="m227.37 644.43-.28-1.67zl-.28-1.67zc-14.31 2.39-32.12 5.37-44.16-4.79-7.56-6.38-8.63-14.18-9.66-21.73-1-7.12-1.91-13.85-8.39-19-5-4-9.59-4.16-15.95-4.42-7.05-.28-15.83-.63-28.23-6.66-6.3-3.06-14.15-6.88-20.14-15.31-3.69-5.18-4.23-8.62-5-13.83a99.7 99.7 0 0 0-3.73-16.23 161 161 0 0 0-5.81-15.29c-3.56-8.39-5.92-13.94-2.85-20.36a19.15 19.15 0 0 1 6.38-7.23c7.2-5.29 14.93-4.61 23.13-3.89 2.46.21 5 .44 7.58.5 11.9.29 18.67-2.91 25.23-6 7-3.3 13.6-6.43 25.09-4.69 3.95.59 14.43 2.18 23.5 10s11.46 17.4 13.39 25.11c1.76 7.07 3.15 12.65 8.61 15.18 6.19 2.87 9.25 2.26 29.18-1.76l4.08-.82c5.2-1 12.11-1.65 19.5 3 9.57 6 13.64 16.3 16.11 24.63 2.42 8.13 9.77 32.85-4.32 55.19a54.14 54.14 0 0 1-24.12 20.63c-10.29 4.56-21 6.34-29.42 7.77m-80.19-151.21c-6.59 3.11-14.05 6.64-26.75 6.33-2.69-.07-5.29-.29-7.8-.51-7.87-.7-14.66-1.29-20.83 3.25a15.85 15.85 0 0 0-5.34 6c-2.41 5-.52 9.5 2.91 17.58 1.74 4.11 3.91 9.23 5.92 15.6a100 100 0 0 1 3.84 16.73c.77 4.9 1.22 7.85 4.45 12.39 5.5 7.73 12.91 11.33 18.87 14.23 11.77 5.72 20.16 6.05 26.9 6.32 6.46.26 12 .49 17.91 5.16 7.54 6 8.6 13.72 9.62 21.19 1 7.23 1.93 14.06 8.5 19.6 10.85 9.16 27.1 6.44 41.43 4 15.24-2.55 38.26-6.4 51.22-27 13.27-21 6.25-44.67 3.94-52.43-2.45-8.24-6.11-17.39-14.67-22.73-5-3.11-10.23-3.88-17-2.52l-4.09.82c-20.39 4.12-24.07 4.86-31.26 1.52-6.92-3.21-8.64-10.11-10.47-17.42-1.9-7.63-4.05-16.28-12.31-23.38s-18.12-8.63-21.8-9.19c-9-1.37-14.65.51-20.39 3.12-.98.46-1.87.9-2.8 1.34m99.7 10.32a54.3 54.3 0 0 0 16.69-2.54c13.22-4.27 20.58-12.84 27.69-21.12s16.79-19.56 17.21-35.87c.49-19-12-32.82-17.34-37.89l-2.31 2.45c5.05 4.76 16.74 17.74 16.28 35.36-.39 15.11-9.27 25.45-16.4 33.76s-13.85 16.12-26.16 20.11c-17.78 5.74-39.74.88-53.41-11.82-9.57-8.9-17.6-23.51-14-36.09 1.66-5.78 5.23-9.61 8.67-13.32 4.29-4.62 8.35-9 7.62-16.15-.44-4.26-2.77-10.71-11.42-17.23-5.33-4-9.72-4.79-14.36-5.61a39.2 39.2 0 0 1-10.59-3c-12.81-6-20.54-19.78-22.51-30.84-1.32-7.35.11-12.83 1.36-17.66 1.47-5.63 2.85-10.95-1-17.09-2.89-4.64-6.5-6.19-11.07-8.15a67 67 0 0 1-9.64-4.84c-13.53-8.33-25.28-23.62-27.94-36.35-1.09-5.21-.55-9.58 1.56-12.62 4.09-5.91 13.91-6.83 23.41-7.71C152 257.19 171 265 182.94 271.93l1.69-2.92c-12.39-7.17-32.11-15.26-55.63-13.01-10.27 1-20.89 1.95-25.87 9.15-2.65 3.82-3.38 9.09-2.09 15.23 2.88 13.77 15 29.61 29.47 38.53a72 72 0 0 0 10.08 5.07c4.34 1.86 7.21 3.09 9.54 6.83 3.06 4.91 2 8.92.58 14.47-1.27 4.9-2.86 11-1.42 19.09 2.12 11.92 10.5 26.84 24.41 33.3a42.4 42.4 0 0 0 11.42 3.27c4.42.77 8.23 1.44 12.92 5 7.68 5.79 9.73 11.29 10.09 14.88.58 5.66-2.64 9.13-6.73 13.52-3.54 3.81-7.55 8.13-9.44 14.67-4.3 14.92 5.34 30.6 14.91 39.5 10.4 9.63 25.39 15.02 40.01 15.03"/><path fill="#fff" d="m359.36 774-.05-1.74h-97.56l-.06 1.72c-1.75 45.27-1.46 91.15.89 136.38 2.24 43 6.38 86.47 12.31 129.17.08.6.17 1.22.25 1.82l.21 1.51 33.75.91 35.69 1 .13-1 .09-.64c.16-1.19.33-2.4.47-3.6 5.7-42.72 9.76-86.16 12.09-129.16 2.43-45.25 3.06-91.13 1.79-136.37m-3.78 98.91q-.58 18.67-1.58 37.24-.5 9.42-1.13 18.85c-.05.92-.12 1.84-.18 2.76q-1.92 28.61-4.87 57.26c-.11 1.09-.21 2.18-.33 3.27q-2.48 23.7-5.6 47.22c-.07.51-.14 1-.2 1.53l-56.91-1.53-6.29-.17q-3.28-23.62-5.83-47.5c-.11-1-.21-2-.31-2.93q-3-28.41-4.88-56.89c-.06-.92-.13-1.84-.18-2.76q-.61-9.56-1.11-19.11-1-18.45-1.47-37c0-.93-.05-1.87-.07-2.79q-.7-28.12-.37-56.28v-2.81q.24-17.76.9-35.4h90.63q.46 17.56.56 35.24v2.82c.08 18.72-.17 37.49-.74 56.2.03.87 0 1.87-.04 2.76Z"/><path d="M358.2 811.47q-.12-19.12-.63-37.44h-94.09q-.71 18.3-1 37.55v2.81q-.33 27.23.37 56.26c0 .92.06 1.86.08 2.79q.51 18.07 1.46 36.81.5 9.64 1.12 19.11c.06.92.11 1.84.19 2.76q1.92 29.16 4.83 56.52l.28 2.8q2.64 24.82 5.9 48.07c.08.53.15 1 .22 1.58l66.32 1.79c.15-1.12.31-2.25.45-3.37q3.12-23.34 5.7-48.12l.3-2.87q2.79-27.49 4.78-56.67c.07-.91.13-1.83.18-2.74q.63-9.35 1.14-18.86 1-18.81 1.59-37l.09-2.8q.87-28.87.75-56.15c-.02-.95-.03-1.89-.03-2.83m-93-35.64h90.63q.46 17.56.56 35.24c-4.43-.84-8-.28-10.81 1.71-8.23 5.76-14.7 8.87-28.95 0-7.8-4.87-14.1-2.77-20.19-.74-5.88 2-12 4-20.35.64a22.1 22.1 0 0 0-11.79-1.4q.24-17.81.9-35.45" style="mix-blend-mode:multiply" fill="#d4e7ff"/><path d="M356.39 811.07c-4.43-.84-8-.28-10.81 1.71-8.23 5.76-14.7 8.87-28.95 0-7.8-4.87-14.1-2.77-20.19-.74-5.88 2-12 4-20.35.64a22.1 22.1 0 0 0-11.79-1.4q.24-17.76.9-35.4h90.63q.46 17.52.56 35.19" style="mix-blend-mode:multiply" fill="#d4e7ff"/><path fill="#fff" d="M359.53 813.27a1.37 1.37 0 0 1-1.32 1 1.6 1.6 0 0 1-.37 0c-.49-.14-1-.25-1.44-.35-3.91-.83-6.95-.45-9.24 1.16-5.32 3.72-10 6-15.32 6-4.72 0-10-1.79-16.67-6s-11.87-2.46-17.85-.47-12.92 4.31-22.26.57a19.5 19.5 0 0 0-10.8-1.15c-.48.08-1 .19-1.45.31a1.3 1.3 0 0 1-.35 0 1.39 1.39 0 0 1-.33-2.73l.36-.08a17 17 0 0 1 1.81-.35 22.1 22.1 0 0 1 11.79 1.4c8.39 3.35 14.47 1.32 20.35-.64 6.09-2 12.39-4.13 20.19.74 14.25 8.92 20.72 5.81 28.95 0 2.83-2 6.38-2.55 10.81-1.71.59.1 1.19.24 1.81.4l.37.1a1.38 1.38 0 0 1 .96 1.8m-27.69 66.94c-4.73 0-10-1.79-16.67-6s-11.87-2.46-17.85-.46-12.93 4.31-22.26.57a19.47 19.47 0 0 0-11.87-.94 1.37 1.37 0 0 1-1.66-1 1.39 1.39 0 0 1 1-1.67 22.17 22.17 0 0 1 13.53 1.07c8.39 3.36 14.47 1.33 20.35-.63 6.09-2 12.39-4.13 20.2.74 14.25 8.91 20.71 5.8 28.94 0 3.12-2.18 7.09-2.65 12.16-1.42a1.38 1.38 0 1 1-.66 2.69c-4.24-1-7.48-.7-9.91 1-5.3 3.76-9.96 6.05-15.3 6.05m0 59.15c-4.73 0-10-1.8-16.67-6s-11.87-2.46-17.85-.47-12.93 4.31-22.26.58a19.55 19.55 0 0 0-9.34-1.37 1.39 1.39 0 1 1-.29-2.76 22.26 22.26 0 0 1 10.66 1.56c8.39 3.35 14.47 1.33 20.35-.64 6.09-2 12.39-4.13 20.2.75 14.25 8.91 20.71 5.8 28.94 0a12.72 12.72 0 0 1 9.13-2 1.38 1.38 0 0 1 1.22 1.53 1.4 1.4 0 0 1-1.53 1.22 10.16 10.16 0 0 0-7.24 1.48c-5.32 3.82-9.98 6.12-15.32 6.12m0 59.14c-4.73 0-10-1.79-16.67-6s-11.87-2.47-17.85-.47-12.93 4.31-22.26.58a20 20 0 0 0-4.62-1.26 1.39 1.39 0 0 1 .41-2.75 24 24 0 0 1 5.24 1.43c8.39 3.36 14.47 1.33 20.35-.63 6.09-2 12.39-4.13 20.2.74 14.25 8.91 20.71 5.8 28.94 0a11.3 11.3 0 0 1 3.59-1.65 1.37 1.37 0 0 1 1.69 1 1.39 1.39 0 0 1-1 1.7 8.4 8.4 0 0 0-2.71 1.25c-5.31 3.77-9.97 6.06-15.31 6.06"/><path d="M844.06 194.81h3.92v649.38h-3.92zm441.74 0h3.92v649.38h-3.92zm-86.06 165.29h-.32l-249.58-6.63a11.78 11.78 0 0 1-11.48-12.11l.23-9a11.74 11.74 0 0 1 7.73-10.76l127.55-46.95.05-1.75 2.18.93 2.23-.82v1.75l126.31 53.71a11.74 11.74 0 0 1 7.18 11.18l-.24 8.92a11.81 11.81 0 0 1-11.79 11.49Zm-123.75-82-128.32 47.22a7.82 7.82 0 0 0-5.15 7.19l-.24 8.95a7.87 7.87 0 0 0 7.66 8.08l249.59 6.63a7.87 7.87 0 0 0 8.08-7.66l.24-8.93a7.86 7.86 0 0 0-4.79-7.46l-127.07-54Z"/><path d="m1078.84 278-3.09-.09v-1.88l-1 .05c-.92-17.8-3.09-22.83-3.11-22.88a21 21 0 0 0-1.8-3.07 12.7 12.7 0 0 1-2-4.15c-1.85-6.19-1.32-11.66 1.59-16.27.53-.83 5.39-8.11 14.53-8.41a17.79 17.79 0 0 1 13.53 30.07l-2.87-2.67a13.87 13.87 0 0 0-10.53-23.48c-7.25.24-11.18 6.33-11.34 6.59-3.44 5.43-1.72 11.16-1.15 13a9 9 0 0 0 1.5 3.05 23 23 0 0 1 2.12 3.62c.26.53 2.53 5.75 3.49 24.35Z"/><path fill="#fff" d="m1166.47 588-177.22-4.71q.79-140.49 1.59-281l26.83-10.24 61.51 114.86L1137.93 300l29.35 12.65-.27 91v4l-.17 58.4v4l-.18 57.86V532l-.15 51.14V588Z"/><path d="m1166.47 589.87-177.27-4.71a1.86 1.86 0 0 1-1.82-1.88l1.58-281a1.88 1.88 0 0 1 1.21-1.74l10.84-4.14 16-6.1a1.87 1.87 0 0 1 2.32.86L1079.2 403l57.08-103.93a1.89 1.89 0 0 1 2.39-.82l29.33 12.66a1.87 1.87 0 0 1 1.13 1.72l-.79 275.37a1.88 1.88 0 0 1-1.87 1.87m-175.34-8.4 173.47 4.61v-2.92l.79-269.3-26.65-11.48-57.93 105.46a1.87 1.87 0 0 1-3.29 0L1016.8 294.4l-14.46 5.52-9.64 3.68Z"/><path d="M1263.41 360.1h-.32l-249.59-6.63a11.78 11.78 0 0 1-11.5-12.12l.24-9a11.74 11.74 0 0 1 7.72-10.76l127.56-46.95v-1.75l2.18.93 2.23-.82v1.75l126.3 53.71a11.73 11.73 0 0 1 7.18 11.18l-.23 8.92a11.81 11.81 0 0 1-11.79 11.49Zm-123.76-82-128.32 47.23a7.85 7.85 0 0 0-5.15 7.19l-.24 8.95a7.87 7.87 0 0 0 7.67 8.08l249.58 6.63a7.89 7.89 0 0 0 8.09-7.66l.23-8.93a7.83 7.83 0 0 0-4.79-7.46l-127.06-54Z"/><path d="m1142.51 278-3.1-.09v-1.88l-1 .05c-.91-17.8-3.09-22.83-3.11-22.88a20.3 20.3 0 0 0-1.8-3.07 12.7 12.7 0 0 1-2-4.15c-1.86-6.19-1.32-11.66 1.59-16.27.52-.83 5.39-8.11 14.53-8.41a17.79 17.79 0 0 1 13.52 30.07l-2.87-2.67a13.87 13.87 0 0 0-10.53-23.48c-7.24.24-11.17 6.33-11.34 6.59-3.43 5.43-1.71 11.16-1.15 13a9 9 0 0 0 1.51 3.05 24 24 0 0 1 2.12 3.62c.25.53 2.52 5.75 3.48 24.35Z"/><path fill="#fff" d="m1230.13 588-177.22-4.71 1.59-281 26.83-10.24 61.51 114.86L1201.59 300l29.35 12.65-.27 91v4l-.17 58.4v4l-.17 57.86V532l-.16 51.14V588Z"/><path d="M1230.13 589.87h-.05l-177.22-4.71a1.87 1.87 0 0 1-1.82-1.88l1.59-281a1.85 1.85 0 0 1 1.2-1.74l10.84-4.14 16-6.1a1.87 1.87 0 0 1 2.32.86L1142.86 403 1200 299.08a1.88 1.88 0 0 1 2.38-.82l29.35 12.65a1.85 1.85 0 0 1 1.13 1.72L1232 588a1.86 1.86 0 0 1-.56 1.34 1.88 1.88 0 0 1-1.31.53m-175.33-8.4 173.46 4.61v-2.92l.8-269.3-26.66-11.48-57.93 105.46a1.82 1.82 0 0 1-1.65 1 1.89 1.89 0 0 1-1.64-1l-60.72-113.44-14.46 5.52-9.64 3.68Z"/><path d="M1334.91 360.1h-.32L1085 353.46a11.78 11.78 0 0 1-11.48-12.11l.24-9a11.74 11.74 0 0 1 7.72-10.76l127.52-46.9v-1.75l2.18.93 2.23-.82v1.75l126.3 53.71a11.73 11.73 0 0 1 7.18 11.18l-.23 8.92a11.81 11.81 0 0 1-11.79 11.49Zm-123.76-82-128.32 47.23a7.85 7.85 0 0 0-5.15 7.19l-.24 8.95a7.87 7.87 0 0 0 7.67 8.08l249.58 6.63a7.89 7.89 0 0 0 8.09-7.66l.23-8.93a7.83 7.83 0 0 0-4.79-7.46l-127.06-54Z"/><path d="m1214 278-3.1-.09v-1.88l-1 .05c-.91-17.8-3.09-22.83-3.11-22.88a20.3 20.3 0 0 0-1.8-3.07 12.5 12.5 0 0 1-2-4.15c-1.86-6.19-1.32-11.66 1.59-16.27.52-.83 5.39-8.11 14.53-8.41a17.79 17.79 0 0 1 13.52 30.07l-2.87-2.67a13.87 13.87 0 0 0-10.53-23.48c-7.24.24-11.17 6.33-11.34 6.59-3.43 5.43-1.71 11.16-1.15 13a9 9 0 0 0 1.51 3.05 24 24 0 0 1 2.12 3.62c.25.53 2.52 5.75 3.48 24.35Z"/><path fill="#fff" d="m1300 584.65-177.22-4.71q.79-140.51 1.59-281l26.83-10.25 61.51 114.87 58.75-106.95 29.35 12.65-.27 91v4l-.17 58.4v4l-.18 57.86v4.09l-.15 51.14v4.84Z"/><path d="M1301.63 589.87h-.05l-177.22-4.71a1.87 1.87 0 0 1-1.82-1.88l1.59-281a1.85 1.85 0 0 1 1.2-1.74l10.84-4.14 16-6.1a1.87 1.87 0 0 1 2.32.86L1214.36 403l57.09-103.93a1.88 1.88 0 0 1 2.38-.82l29.35 12.65a1.85 1.85 0 0 1 1.13 1.72L1303.5 588a1.86 1.86 0 0 1-.56 1.34 1.88 1.88 0 0 1-1.31.53m-175.33-8.4 173.46 4.61v-2.92l.8-269.3-26.66-11.48-57.9 105.46a1.86 1.86 0 0 1-1.65 1 1.89 1.89 0 0 1-1.64-1L1152 294.4l-14.45 5.52-9.64 3.68ZM845.78 239.35H1288v3.92H845.78z"/><g data-name="background 2"><path d="M700.22 863.69h-331V175.16h331Zm-327.14-3.89h323.24V179.06H373.08Z"/><path d="M369.33 860.65h961.47v3.92H369.33zm-94.07 178.53h145.73v3.94H275.26z"/><path fill="#e66d3f" d="M698.46 117v145.87a12.24 12.24 0 0 1-12.23 12.23h-37.81a21.06 21.06 0 1 1-42.07 0h-50a21.06 21.06 0 1 1-42.07 0h-50a21.06 21.06 0 1 1-42.07 0h-37.89a12.23 12.23 0 0 1-12.23-12.23V116.94a17.2 17.2 0 0 1 17.2-17.21H681.2A17.26 17.26 0 0 1 698.46 117"/><path fill="#e66d3f" d="M627.37 298.76h-.22a22.34 22.34 0 0 1-16-7.08 22.62 22.62 0 0 1-6.28-15.06h-47a23 23 0 0 1-6.45 15.23 22.57 22.57 0 0 1-16.42 6.91 22.34 22.34 0 0 1-16-7.08 22.62 22.62 0 0 1-6.28-15.06h-47a23 23 0 0 1-6.45 15.23 22.57 22.57 0 0 1-38.68-15.23h-36.27a13.77 13.77 0 0 1-13.75-13.75V116.94a18.75 18.75 0 0 1 18.72-18.73h291.92A18.8 18.8 0 0 1 700 117v145.87a13.77 13.77 0 0 1-13.75 13.75H650a23 23 0 0 1-6.45 15.23 22.6 22.6 0 0 1-16.18 6.91m-72.64-25.18h53.2l-.06 1.58a19.58 19.58 0 0 0 5.44 14.43 19.24 19.24 0 0 0 13.87 6.13 19.77 19.77 0 0 0 19.73-20.56l-.07-1.58h39.39a10.72 10.72 0 0 0 10.71-10.71V117a15.75 15.75 0 0 0-15.73-15.74H389.29a15.71 15.71 0 0 0-15.69 15.69v145.92a10.73 10.73 0 0 0 10.72 10.71h39.39l-.07 1.58a19.66 19.66 0 0 0 5.44 14.43 19.28 19.28 0 0 0 13.92 6.13 19.76 19.76 0 0 0 19.72-20.56l-.06-1.58h53.2l-.06 1.58a19.6 19.6 0 0 0 5.43 14.43 19.28 19.28 0 0 0 13.88 6.13 19.76 19.76 0 0 0 19.72-20.56Z"/><path fill="#fff" d="M422.13 99.73V275.1a24 24 0 0 1-4.26 11.07A26.6 26.6 0 0 1 396 297.24a26.9 26.9 0 0 1-15.35-4.91 25.1 25.1 0 0 1-9.35-12.39 13.06 13.06 0 0 1-1.88-6.77V112.73a12.94 12.94 0 0 1 12.88-13Z"/><path d="M396.18 298.58H396a28 28 0 0 1-16.12-5.16 26.2 26.2 0 0 1-9.8-12.91 14.45 14.45 0 0 1-2-7.34V112.73a14.3 14.3 0 0 1 14.22-14.34h39.82a1.34 1.34 0 0 1 1.34 1.34V275.1a1 1 0 0 1 0 .15 25.4 25.4 0 0 1-4.46 11.69 27.85 27.85 0 0 1-22.82 11.64m-13.87-197.51a11.62 11.62 0 0 0-11.54 11.66v160.44a11.83 11.83 0 0 0 1.69 6.08 1.2 1.2 0 0 1 .12.26 23.6 23.6 0 0 0 8.85 11.72A25.5 25.5 0 0 0 396 295.9h.16a25.17 25.17 0 0 0 20.6-10.51 22.8 22.8 0 0 0 4-10.37V101.07Z"/><path fill="#fff" d="M514.24 99.73V275.1a24.4 24.4 0 0 1-4.11 11.07 25.27 25.27 0 0 1-44.89-6.23 24.2 24.2 0 0 1-1-4.84V99.73Z"/><path d="M489.21 298.58h-.16a26.34 26.34 0 0 1-26.19-23.33V99.73a1.34 1.34 0 0 1 1.34-1.34h50a1.34 1.34 0 0 1 1.34 1.34V275.1a1 1 0 0 1 0 .15 25.86 25.86 0 0 1-4.33 11.67 26.6 26.6 0 0 1-22 11.66M465.54 275a22.6 22.6 0 0 0 1 4.51 24.08 24.08 0 0 0 22.54 16.37h.15A23.91 23.91 0 0 0 509 285.41a23.3 23.3 0 0 0 3.9-10.41V101.07h-47.36Z"/><path fill="#fff" d="M606.35 99.73V275.1a24.54 24.54 0 0 1-4.1 11.07 25.28 25.28 0 0 1-44.9-6.23 25 25 0 0 1-1-4.84V99.73Z"/><path d="M581.32 298.58h-.16a26.46 26.46 0 0 1-25.08-18.22 25.6 25.6 0 0 1-1.1-5.11 1 1 0 0 1 0-.15V99.73a1.34 1.34 0 0 1 1.34-1.34h50a1.34 1.34 0 0 1 1.34 1.34V275.1a1 1 0 0 1 0 .15 26 26 0 0 1-4.32 11.67 26.63 26.63 0 0 1-22.02 11.66M557.65 275a23.3 23.3 0 0 0 1 4.51 24.09 24.09 0 0 0 22.55 16.37h.14a23.94 23.94 0 0 0 19.82-10.49A23.4 23.4 0 0 0 605 275V101.07h-47.35Z"/><path fill="#fff" d="M698.3 112.73v160.44a12.4 12.4 0 0 1-.14 1.93h.14a23.9 23.9 0 0 1-4.3 11.07 27.08 27.08 0 0 1-43.68 0 24.7 24.7 0 0 1-3.2-6.23 23.6 23.6 0 0 1-1.08-4.84V99.73h39.48a12.89 12.89 0 0 1 12.78 13"/><path d="M672.16 298.58H672A28.09 28.09 0 0 1 649.23 287a25.9 25.9 0 0 1-3.37-6.57 25.2 25.2 0 0 1-1.15-5.13V99.73a1.34 1.34 0 0 1 1.35-1.34h39.48a14.24 14.24 0 0 1 14.11 14.34v160.44a15 15 0 0 1-.07 1.49 1.3 1.3 0 0 1 .06.59 25.3 25.3 0 0 1-4.52 11.7 28.11 28.11 0 0 1-22.96 11.63M647.39 275a21.6 21.6 0 0 0 1 4.49 22.7 22.7 0 0 0 3 5.88 25.74 25.74 0 0 0 41.5 0 22.75 22.75 0 0 0 4-9.86 1.4 1.4 0 0 1-.06-.64 10.5 10.5 0 0 0 .13-1.72V112.73a11.56 11.56 0 0 0-11.43-11.66h-38.14Zm570.36 624.28h1.22c22.1-.42 41.37-.35 58.92.21l2 .06-59.53 197.37h-1.09c-11.53.26-23.3.47-36 .67h-1.83Zm58.09 3.13c-16.65-.49-34.87-.55-55.58-.17L1185 1094.55c11.59-.17 22.43-.37 33-.61ZM1057.28 1098c-21.31-.18-42.39-.51-64.45-1h-1.85l44.61-188.76 6.42-.39c20.14-1.24 41-2.53 61.47-3.7l2-.12-47 194Zm-15.08-187.16-4.2.25-43.25 183c21 .45 41.07.76 61.37.93l45.51-187.74c-19.84 1.11-39.96 2.35-59.43 3.56m-160.63 183.04c-26.2-.69-50.57-1.16-74.51-1.44h-1.83l37-177.86h1.25c27.67.56 52.73.52 74.48-.13l1.9-.05-37 179.51Zm-36.92-176.26-35.73 171.84c23 .27 46.4.73 71.47 1.39l35.74-173.33c-21.02.58-45.05.61-71.48.1M674.7 906.15l1.2.09c24.94 1.85 51.17 3.53 75.87 4.85l1.87.11-51.42 181.23h-1.12c-27.57.32-54.94.86-81.34 1.6l-2.09.06Zm75 7.84c-23.77-1.29-48.88-2.9-72.85-4.67L621.76 1091c25.42-.7 51.7-1.21 78.18-1.53Z"/><path d="M1257.44 926.32c-8.79-.43-18.35-.75-28.41-1-19.39-.42-40.68-.47-65.09-.16-34.74.44-74.07 1.58-127.54 3.67-22.64.88-45.64 1.84-67.88 2.78l-5.86.24c-43.41 1.83-82.31 3.42-118.71 4.43-3.88.12-7.94.21-12.4.3-24 .48-51.67.51-82.22.09s-64.72-1.3-101.23-2.62c-27.26-1-56.22-2.25-83.76-3.65-27.87-1.4-45.65-2.48-45.83-2.49l-1.52-.1-60.6 88.69Q441.2 1038.74 426 1061l-9 13.25 3.56-.11c26.22-.77 53.74-1.44 81.79-2 29.15-.55 59.37-1 89.8-1.2l21.8-.13c32.05-.15 63.19-.11 95.19.13 26.43.21 53.34.56 82.27 1.09 19.6.34 37.5.72 54.81 1.08 12.55.27 24.49.52 35.95.73 10.85.2 21.65.39 32.09.55 24.36.36 47.64.6 71.17.73 16.44.1 33.08.15 49.83.15a8634 8634 0 0 0 129.01-.96c38.92-.58 78.75-1.43 118.4-2.52h1.38l1-1.68 26.63-44.06 30.11-49.82 26.9-44.53Z" style="mix-blend-mode:multiply" fill="#d4e7ff"/><path d="M1235.35 1187.3c-1.15.57-28.79 14-81.17 14.48-12.47.12-20.33-1.47-23.47-4.74-35.69 4-93.12 3-93.71 3l.1-3.62c.57 0 56.58.93 92.07-2.85a.2.2 0 0 0 0-.07c-.23-6.41 11.24-12.51 19.12-13.77 6.6-1.06 11.07.86 12.25 5.27a4.34 4.34 0 0 1-.77 3.81c-1.55 2.11-5.68 5.11-23.16 7.51 2.89 1 8.11 1.93 17.56 1.84 51.34-.49 79.11-13.91 79.39-14.05Zm-102.35 5.83c18-2.2 22.46-4.91 23.52-6.35a.93.93 0 0 0 .21-.88c-.82-3.07-4.72-3.11-7.85-2.61-7.31 1.18-15.61 6.39-15.88 9.84"/></g><g data-name="man 1"><path fill="#e66d3f" d="M1224.87 338.13c-1.5-3.12-9.68-2.12-18.16-1a135 135 0 0 0-20.17 4c-4.28 1.23-10.28 3.07-17.35 5.63 0 0-13.3 4.83-27 11.52-15.08 7.36-44.16 25.35-78.61 53.3Q957 318.39 931.89 336.72q-14.31 10.45-2.15 57.2c23.31 19.67 44.79 37.48 64.08 53.3 41.47 34 54.78 44 66.42 45.89a29.4 29.4 0 0 0 6.45.35c18.64-.66 32.56-15.15 59.32-52.45 10.28-14.32 22.48-32.05 35.68-52.88l1.65 1.44c10.5 1.26 17.15 2.4 20.48 3.53.75.25 3.09 1.25 4.64 0a11 11 0 0 0 1.76-2.57 6.63 6.63 0 0 0 6.36 2.52 6.78 6.78 0 0 0 5.21-6.88 15.9 15.9 0 0 0 9-2.65c1.56-1.07 2.73-2.4 5-5s3.5-4 4-5.05c2.35-4.63.9-9.88-.3-14.21a36 36 0 0 0-2.83-7.14l-4.94-2.86a13.74 13.74 0 0 0 10.09-4c.46-.53 4.28-4.59 3.06-7.13"/><path fill="#e66d3f" d="M1065 495a28.3 28.3 0 0 1-5-.4c-11.89-2-24.26-11.07-67.12-46.21a6050 6050 0 0 1-64.09-53.31 1.42 1.42 0 0 1-.47-.75C920 362.18 920.84 343 931 335.52c17.47-12.74 60.83 11.51 132.56 74.15 33.78-27.31 62.36-45.11 77.93-52.7 13.65-6.65 27-11.53 27.18-11.57 5.75-2.09 11.61-4 17.44-5.66a133 133 0 0 1 20.39-4.08c10.69-1.4 17.83-2 19.68 1.83 1.44 3-1.44 6.74-3.28 8.71a14.1 14.1 0 0 1-6.64 3.93l1.15.67a1.47 1.47 0 0 1 .57.59 38 38 0 0 1 2.94 7.44c1.25 4.51 2.81 10.13.2 15.27-.62 1.22-1.83 2.6-4.24 5.35s-3.6 4.11-5.32 5.29a17 17 0 0 1-8.41 2.83 8.19 8.19 0 0 1-6.31 6.93 7.85 7.85 0 0 1-6.34-1.6 5.3 5.3 0 0 1-1.13 1.35c-2.07 1.66-4.81.68-5.85.31l-.19-.06c-3.23-1.09-9.83-2.22-20.19-3.46a1.54 1.54 0 0 1-.8-.36l-.34-.3a1126 1126 0 0 1-34.8 51.5c-26.44 36.84-40.69 52.36-60.48 53.05-.62.07-1.21.07-1.72.07M931.06 393.1c21 17.75 42.46 35.57 63.69 53 41.73 34.22 54.62 43.75 65.74 45.59a28 28 0 0 0 6.15.32c18.54-.65 32.33-15.81 58.18-51.83 12.27-17.1 24.26-34.87 35.63-52.81a1.48 1.48 0 0 1 1-.67 1.5 1.5 0 0 1 1.19.35l1.3 1.14c10.43 1.26 16.9 2.38 20.32 3.54l.25.08c.66.24 2.22.8 3 .17a5 5 0 0 0 .84-1.21l.6-1a1.48 1.48 0 0 1 2.41-.14 5.17 5.17 0 0 0 4.91 2 5.31 5.31 0 0 0 4-5.41 1.49 1.49 0 0 1 1.45-1.5 14.65 14.65 0 0 0 8.15-2.39c1.41-1 2.53-2.25 4.77-4.8a33 33 0 0 0 3.83-4.74c2.08-4.12.76-8.91-.41-13.14a35 35 0 0 0-2.52-6.48l-4.54-2.67a1.47 1.47 0 0 1 .73-2.75 12.3 12.3 0 0 0 9-3.57c2.06-2.2 3.23-4.47 2.78-5.41-1.07-2.22-10.82-.94-16.64-.19a135 135 0 0 0-19.93 4c-5.79 1.66-11.59 3.54-17.27 5.6-.14.05-13.39 4.88-26.9 11.46-15.57 7.59-44.32 25.52-78.33 53.11a1.47 1.47 0 0 1-1.9 0c-70.11-61.33-113.78-86.5-129.8-74.8-8.89 6.47-9.47 25.05-1.68 55.15m47.67 627.41h46.76v94.22h-46.76z"/><path fill="#e66d3f" d="M1025.48 1116.62h-46.75a1.9 1.9 0 0 1-1.9-1.89v-94.22a1.9 1.9 0 0 1 1.9-1.9h46.75a1.9 1.9 0 0 1 1.9 1.9v94.22a1.9 1.9 0 0 1-1.9 1.89m-44.86-3.79h43v-90.43h-43Z"/><path fill="#fff" d="M1053.11 1172.82h-98.47l3.36-11.34 2.31-7.79 9.92-7.79 8.5-34.18 4.57-.36c-.54-2.36-2.2-10.85 2.51-15.76 2.94-3.06 9-3 21.25-2.83 7.42.09 9.28.73 10.63 2.12 4 4.15 1.1 12.41.71 13.46l7.08-.35 11.34 37.19 8.5 7.08c1.17 3.07 2.33 6.15 3.49 9.21Z"/><path d="M1056.2 1175H951.78l6.67-22.52 9.88-7.76 8.7-35 3.74-.3c-.62-4.22-.73-10.89 3.5-15.3 3.58-3.72 10-3.65 22.82-3.49 7.5.1 10.11.69 12.13 2.78 3.44 3.54 2.95 9 2.09 12.66l5.73-.29 11.63 38.18 8.45 7 .19.53c1 2.56 2 5.14 2.93 7.71Zm-98.7-4.26h92.5l-3.77-10-2.73-7.18-8.56-7.14-11-36.21-8.65.43 1.12-3c1.08-3 2.26-8.66-.24-11.24-.73-.76-1.92-1.39-9.12-1.48-11.21-.14-17.39-.21-19.69 2.18-3.74 3.89-2.62 11-2 13.8l.55 2.41-5.5.44-8.31 33.39-10 7.83Z"/><path d="M1053.11 1172.82h-98.47l3.36-11.34h90.81Z"/><path d="M1054.57 1173.82H953.29l4-13.34h92.25Zm-98.58-2h95.67l-3.54-9.32h-89.37Zm61.01-48.6a49.77 49.77 0 0 0-28.35 0l-1.45-4.22a53.5 53.5 0 0 1 31.16 0Zm0 7.78a49.77 49.77 0 0 0-28.35 0l-1.47-4.19a53.5 53.5 0 0 1 31.16 0Zm0 7.8c-14.65-4.66-28.22-.06-28.35 0l-1.47-4.18a53.3 53.3 0 0 1 31.16 0Z"/><path fill="#e66d3f" d="M740.23 1020.51h46.76v94.22h-46.76z"/><path fill="#e66d3f" d="M787 1116.62h-46.77a1.9 1.9 0 0 1-1.9-1.89v-94.22a1.9 1.9 0 0 1 1.9-1.9H787a1.9 1.9 0 0 1 1.9 1.9v94.22a1.9 1.9 0 0 1-1.9 1.89m-44.86-3.79h43v-90.43h-43Z"/><path fill="#fff" d="M814.61 1172.82h-98.47l3.36-11.34 2.31-7.79 9.92-7.79 8.5-34.18 4.57-.36c-.54-2.36-2.2-10.85 2.51-15.76 2.94-3.06 9-3 21.25-2.83 7.42.09 9.28.73 10.63 2.12 4 4.15 1.1 12.41.71 13.46l7.1-.35 11.34 37.19 8.5 7.08c1.17 3.07 2.33 6.15 3.49 9.21Z"/><path d="M817.7 1175H713.28l6.68-22.52 9.87-7.76 8.7-35 3.74-.3c-.62-4.22-.72-10.89 3.5-15.3 3.58-3.72 10-3.65 22.82-3.49 7.5.1 10.11.69 12.13 2.78 3.44 3.54 2.95 9 2.09 12.66l5.73-.29 11.63 38.22 8.45 7 .2.53 2.92 7.71Zm-98.7-4.26h92.52l-3.77-10-2.73-7.18-8.56-7.14-11-36.21-8.65.43 1.12-3c1.08-3 2.26-8.66-.24-11.24-.73-.76-1.92-1.39-9.12-1.48-11.21-.14-17.39-.21-19.69 2.18-3.73 3.89-2.62 11-2 13.8l.55 2.41-5.5.44-8.31 33.39-10 7.83Z"/><path d="M814.61 1172.82h-98.47l3.36-11.34h90.81Z"/><path d="M816.07 1173.82H714.79l4-13.34H811Zm-98.58-2h95.67l-3.54-9.32h-89.37Zm61.03-48.6a49.77 49.77 0 0 0-28.35 0l-1.47-4.22a53.5 53.5 0 0 1 31.16 0Zm0 7.78a49.77 49.77 0 0 0-28.35 0l-1.47-4.19a53.5 53.5 0 0 1 31.16 0Zm0 7.8a49.6 49.6 0 0 0-28.35 0l-1.47-4.18a53.3 53.3 0 0 1 31.16 0ZM763.33 550c-9.42 74.55-17.66 142-24.71 201.24-12.38 103.87-16.68 144.69-19.17 198.71-2.37 51.39-2.16 94.07-1.51 123.56a256.5 256.5 0 0 0 131.88 9.49q2.37-100 7.32-204.25 5-103 12.1-201.74 9.79 94.77 19.17 189.63 10.88 109.94 21.18 219.9a195.2 195.2 0 0 0 85.24.5 192.5 192.5 0 0 0 51.94-19.67c-2-30.12-5.54-73.49-11.6-125.58-9.15-78.67-19.54-137.46-32.27-208.8-8.45-47.24-20.2-109.59-35.81-182.99-11.43-8.55-52.06-36.79-110-34-48.09 2.2-81.39 24.65-93.76 34"/><path d="M953.53 1092.6a198 198 0 0 1-44.16-5l-.72-.16-.06-.73c-6.85-73-14-147-21.19-219.89-5.87-59.37-11.91-119.23-18-178.11-4.46 63.09-8.25 127-11.28 190.16-3.25 67.73-5.71 136.45-7.32 204.24v.81l-.8.15a257.5 257.5 0 0 1-132.4-9.61l-.66-.23v-.7c-.89-40.85-.38-82.45 1.51-123.64 2.47-53.41 6.74-94.44 19.18-198.78 8-66.72 16.26-134.43 24.71-201.24v-.43l.34-.25c15.77-11.87 49-32.09 94.37-34.25 53.09-2.52 92.08 20.37 110.6 34.25l.31.22.07.37c12.95 60.92 25 122.52 35.82 183.11 12.31 69 22.95 128.57 32.29 208.86 4.85 41.76 8.76 84 11.6 125.63v.64l-.56.31a193.14 193.14 0 0 1-93.73 24.31Zm-43-6.85a191.6 191.6 0 0 0 135.19-18.91c-2.83-41.37-6.72-83.38-11.55-124.89-9.33-80.24-20-139.79-32.27-208.74-10.79-60.45-22.81-121.9-35.72-182.67-18.43-13.74-56.84-36.11-109-33.62-44.49 2.08-77.18 21.83-92.9 33.58a28776 28776 0 0 0-24.66 200.81C727.19 855.59 722.92 896.6 720.46 950c-1.88 40.9-2.4 82.21-1.53 122.79a255.7 255.7 0 0 0 129.9 9.46c1.61-67.54 4.06-136 7.3-203.46 3.22-67 7.29-134.91 12.11-201.76h2c6.46 62.59 12.91 126.39 19.16 189.64 7.2 72.61 14.3 146.33 21.13 219.08"/><path fill="#fff" d="M827.77 1013.88a6.3 6.3 0 0 1-1.81-.28c-6.15-1.82-9.42-11.9-9.91-30.7a3.76 3.76 0 0 0-2.73-.88c-1 .19-5.89 2.46-5.79 28.38h-4c-.07-19.75 2.64-30.27 8.32-32.17a6.22 6.22 0 0 1 4.18.11q0-4.64.17-9.87c.68-20 3.32-39.66 3.35-39.86l4 .54c0 .2-2.64 19.7-3.32 39.48-.16 4.6-.2 8.69-.14 12.32a25.5 25.5 0 0 1 3.16 3.57c5.7 7.59 11.62 22.49 8.12 27.53a4.23 4.23 0 0 1-3.6 1.83m-7.5-26.53c1 18.32 4.89 21.8 6.84 22.38a1.57 1.57 0 0 0 .85.09c.63-.4.91-4.64-2.15-12.23a49 49 0 0 0-5.54-10.24m166.5-183.44c-5-36.84-22-124.08-22.17-125l4-.78c.18.88 17.22 88.25 22.22 125.2ZM864.7 644.67v-74.23l15.14-8.25V617c0 24.6-12.24 27.11-12.76 27.21Zm4-71.83V639c2.8-2.18 7.06-7.81 7.06-21.93V569Z"/><path fill="#e66d3f" d="M494.46 338.13c1.49-3.12 9.67-2.12 18.15-1a135.6 135.6 0 0 1 20.18 4c4.28 1.23 10.28 3.07 17.34 5.63 0 0 13.3 4.83 27 11.52 15.09 7.36 44.16 25.35 78.61 53.3q106.53-93.21 131.65-74.88 14.33 10.45 2.15 57.2c-23.3 19.67-44.79 37.48-64.07 53.3-41.48 34-54.78 44-66.43 45.89a29.4 29.4 0 0 1-6.45.35c-18.59-.64-32.52-15.13-59.28-52.44-10.31-14.31-22.48-32-35.68-52.87l-1.63 1.44c-10.51 1.26-17.16 2.4-20.49 3.53-.75.25-3.09 1.25-4.64 0a11 11 0 0 1-1.76-2.57 6.63 6.63 0 0 1-6.36 2.52 6.79 6.79 0 0 1-5.21-6.88 15.9 15.9 0 0 1-8.95-2.65c-1.56-1.07-2.72-2.4-5.05-5s-3.49-4-4-5.05c-2.35-4.63-.89-9.88.3-14.21a36 36 0 0 1 2.83-7.14l4.94-2.86a13.76 13.76 0 0 1-10.09-4c-.47-.53-4.28-4.59-3.06-7.13"/><path fill="#e66d3f" d="M654.38 495h-1.8c-19.79-.69-34-16.21-60.47-53.05-12-16.69-23.68-34-34.8-51.5l-.35.3a1.5 1.5 0 0 1-.8.36c-10.35 1.24-17 2.37-20.19 3.46l-.19.06c-1 .37-3.78 1.35-5.84-.31a5.2 5.2 0 0 1-1.14-1.35 7.85 7.85 0 0 1-6.34 1.6 8.2 8.2 0 0 1-6.31-6.93 17 17 0 0 1-8.41-2.83c-1.71-1.18-2.92-2.56-5.32-5.29s-3.62-4.13-4.24-5.35c-2.6-5.14-1.05-10.76.2-15.27a37.4 37.4 0 0 1 2.95-7.44 1.45 1.45 0 0 1 .56-.59l1.16-.67a14.06 14.06 0 0 1-6.65-3.93c-1.84-2-4.71-5.71-3.28-8.71 1.85-3.85 9-3.23 19.68-1.83a135 135 0 0 1 20.42 4.08c5.8 1.67 11.67 3.57 17.41 5.66.14 0 13.53 4.92 27.19 11.57 15.56 7.59 44.15 25.39 77.93 52.7 71.72-62.74 115.09-86.96 132.55-74.22 10.18 7.44 11.07 26.66 2.71 58.78a1.5 1.5 0 0 1-.48.75 5969 5969 0 0 1-64.09 53.31c-42.86 35.14-55.23 44.24-67.12 46.21a28 28 0 0 1-4.94.43m-96.75-108.34h.21a1.48 1.48 0 0 1 1 .67c11.37 17.94 23.35 35.71 35.63 52.81 25.84 36 39.64 51.18 58.18 51.83a28.2 28.2 0 0 0 6.15-.32c11.12-1.84 24-11.37 65.73-45.59 21.21-17.38 42.64-35.21 63.7-53 7.78-30.11 7.21-48.68-1.71-55.19-16-11.71-59.7 13.47-129.8 74.8a1.48 1.48 0 0 1-1.91 0c-34-27.59-62.76-45.52-78.33-53.11-13.48-6.56-26.72-11.34-26.85-11.39-5.68-2.06-11.49-3.94-17.25-5.6a137 137 0 0 0-20-4c-5.82-.75-15.57-2-16.63.19-.45.94.71 3.21 2.77 5.41a12.37 12.37 0 0 0 9 3.57 1.5 1.5 0 0 1 1.45 1.08 1.47 1.47 0 0 1-.68 1.67l-4.56 2.64a34.6 34.6 0 0 0-2.53 6.48c-1.17 4.23-2.49 9-.4 13.14a32.7 32.7 0 0 0 3.82 4.74c2.24 2.55 3.37 3.83 4.78 4.8a14.6 14.6 0 0 0 8.14 2.39 1.48 1.48 0 0 1 1.45 1.5 5.31 5.31 0 0 0 4 5.41 5.17 5.17 0 0 0 4.91-2 1.49 1.49 0 0 1 1.24-.55 1.47 1.47 0 0 1 1.17.69l.6 1a5 5 0 0 0 .84 1.21c.78.63 2.33.07 3-.17l.24-.08c3.42-1.16 9.89-2.28 20.33-3.54l1.3-1.14a1.5 1.5 0 0 1 1.01-.35"/><path d="M604.64 485.42h-.28l-218.62-5.82a10.33 10.33 0 0 1-10.06-10.6l.21-7.85a10.28 10.28 0 0 1 6.76-9.42l111.73-41.13v-1.53l1.91.81 2-.72v1.54l110.64 47.05a10.26 10.26 0 0 1 6.28 9.79l-.2 7.81a10.34 10.34 0 0 1-10.33 10.07Zm-108.4-71.84L383.84 455a6.87 6.87 0 0 0-4.52 6.3l-.21 7.84A6.9 6.9 0 0 0 381 474a6.83 6.83 0 0 0 4.82 2.15L604.45 482a6.9 6.9 0 0 0 7.08-6.72l.21-7.82a6.85 6.85 0 0 0-4.2-6.53l-111.3-47.33Z"/><path fill="#fff" d="m697.74 541-72.54 75.3-15.68-14.07-.58 195.59-223.28-5.94v-2.52l1.13-200.19-17.5 15.71-69.6-72.24 87.94-90.87 15-5.72 19.69-7.51 2.12-.81L441 458.57c25 46.63 91.72 47 117.18.62l12-21.79L610 454.55Z"/><path d="m498.54 414-3.33-.09.06-2-1 .05c-1-19.12-3.33-24.53-3.35-24.58a21.6 21.6 0 0 0-1.93-3.3 13.8 13.8 0 0 1-2.19-4.46c-2-6.65-1.42-12.54 1.71-17.49.56-.89 5.79-8.71 15.62-9a19.11 19.11 0 0 1 14.53 32.31l-3.09-2.87a14.9 14.9 0 0 0-11.31-25.23c-7.78.25-12 6.8-12.19 7.07-3.69 5.84-1.84 12-1.23 14a9.6 9.6 0 0 0 1.62 3.28 26 26 0 0 1 2.27 3.89c.28.57 2.72 6.18 3.75 26.17Z"/><path fill="#e66d3f" d="m683.43 529.82-72.55 75.29L595.2 591l-.57 195.59-223.29-5.89v-2.52L372.48 578 355 593.7l-69.6-72.25 87.94-90.87 15-5.72 19.66-7.51 2.12-.81 16.51 30.84c25 46.64 91.72 47 117.19.63l12-21.8 39.84 17.16Z"/><path fill="none" stroke="#000" stroke-miterlimit="10" stroke-width="4" d="m697.74 542-72.54 75.3-15.68-14.07-.58 195.59-223.28-5.94v-2.52l1.14-200.16-17.5 15.71-69.6-72.24 87.94-90.88 15-5.71 19.69-7.51 2.12-.81L441 459.59c25 46.64 91.72 47 117.18.63l12-21.79L610 455.58Z"/><path fill="#fdbe4f" d="M829.4 273s45.39-15.77 77.67 0l3 26.27H829.4Z"/><path fill="#fdbe4f" d="M911.3 300.36h-83v-28.11l.72-.25c.46-.15 46.19-15.73 78.49.05l.53.26Zm-80.83-2.14h78.43l-2.83-24.5c-29.27-13.92-69.72-1.82-75.6.07Z"/><path fill="#e66d3f" d="M492.12 378.28c3.8 7 10.85-.58 10.85-.58 4.1 11.71 9.56 8.59 11.65 6.81-.55.91-.86 2.66 1.1 5.82a5.22 5.22 0 0 0 3.13 2.42c3.33.89 7.18-1.49 7.18-1.49a12 12 0 0 0 1.39 3c1.31 1.47 4.12 1 4.91.85 2.9-.5 5.81-2.45 11.47-10.19a117 117 0 0 0 7.54-11.81l1.22-5c-4.41-.92-16.26 10.69-21.7 16.31 6.24-6.81 20.31-23.39 14.84-29.28-4-4.26-11.37 3.05-17 10.12 5.18-7.88 10.6-17.74 7.48-20.52-5.42-4.82-20 15.91-26.68 24.19 0 0 16-30.42 10.81-31.83-3.46-.93-12.94 7.79-19.45 15.62-4.71 8.13-11.26 20.9-8.74 25.56"/><path fill="#e66d3f" d="M530.42 396.91a5.3 5.3 0 0 1-4.18-1.56 6.2 6.2 0 0 1-1.06-1.9 10.74 10.74 0 0 1-6.74.83 6.82 6.82 0 0 1-4.07-3.11 11.9 11.9 0 0 1-1.6-3.73 6.37 6.37 0 0 1-3.85.2c-2.61-.7-4.82-3.13-6.6-7.23-1.61 1.26-4.11 2.71-6.69 2.39-1.4-.18-3.39-1-4.9-3.77-2.23-4.12.71-13.22 8.75-27a1 1 0 0 1 .15-.22c.6-.73 14.87-17.8 21.08-16.14a2.8 2.8 0 0 1 1.86 1.65c1.33 3.05-1.75 11.47-5.2 19.2 6.4-7.82 12-13.56 16.39-14a4.5 4.5 0 0 1 3.47 1.09c1.49 1.33 2.68 4-.8 11.46 2.32-1.75 4.38-2.64 6.2-2.71a5.32 5.32 0 0 1 4.23 1.76c3.28 3.53 1.31 9.62-2.82 16.21 4-2.87 6.9-4.12 8.85-3.71a1.58 1.58 0 0 1 1.21 1.92l-1.22 5a1.3 1.3 0 0 1-.15.39 119 119 0 0 1-7.65 12c-6 8.26-9.26 10.27-12.49 10.82a12.3 12.3 0 0 1-2.17.16m-4.42-7.23a1.4 1.4 0 0 1 .5.08 1.57 1.57 0 0 1 1 .9c.18.44.32.82.45 1.16a6.3 6.3 0 0 0 .66 1.44c.21.23 1 .75 3.44.33s5.08-2.19 10.47-9.57a116 116 0 0 0 7.34-11.46l.61-2.49c-3.19 1.35-9.5 6.23-18.47 15.5a1.58 1.58 0 0 1-2.31-2.17c12.09-13.19 17.91-23.83 14.85-27.13a2.15 2.15 0 0 0-1.79-.75c-1.62.06-5.44 1.54-12.82 10.78a1.58 1.58 0 0 1-2.56-1.86c8.3-12.63 8.78-17.55 7.75-18.47a1.29 1.29 0 0 0-1.07-.31c-4.71.44-14.22 12.66-19.89 20-1.28 1.64-2.44 3.14-3.44 4.36a1.58 1.58 0 0 1-2.63-1.74c6.49-12.31 12.61-26.93 11.63-29.58h-.09c-2.36 0-10.18 6.28-17.48 15-7 12-10.21 20.94-8.63 23.85a3.51 3.51 0 0 0 2.5 2.13c2.17.27 4.91-2.1 5.79-3a1.58 1.58 0 0 1 2.65.56c1.92 5.46 3.93 7 5.28 7.4 1.56.42 3.08-.62 3.85-1.27a1.58 1.58 0 0 1 2 0 1.59 1.59 0 0 1 .33 2c-.46.76-.05 2.32 1.09 4.17a3.7 3.7 0 0 0 2.21 1.72c2.16.58 5-.75 5.93-1.31a1.65 1.65 0 0 1 .85-.27"/><path fill="#fff" d="M759.8 558.53a377.7 377.7 0 0 0 212.89 0l-12.16-228c-6-9.13-17.1-23.05-35.3-31.27-6-2.7-15.19-5.89-63.55-4-51.36 2-63 6.41-70.61 10.09a105.5 105.5 0 0 0-30.26 22.19Q760.3 443 759.8 558.53"/><path fill="#fff" d="M866.23 576q-5.84 0-11.68-.18a380.3 380.3 0 0 1-95.35-15.22l-1.55-.45 1-233.46.59-.61a107.1 107.1 0 0 1 30.88-22.64c8.6-4.16 21.19-8.38 71.46-10.3 46.9-1.8 57.59 1.1 64.51 4.22 14.34 6.47 26.52 17.25 36.21 32.05l.32.48v.58l12.25 229.66-1.63.47A380.5 380.5 0 0 1 866.23 576M762 556.92a375.63 375.63 0 0 0 208.51 0l-12-225.68c-9.19-13.86-20.65-23.95-34.08-30-6.45-2.91-16.6-5.61-62.58-3.85-49.43 1.9-61.93 6.09-69.76 9.88a102.7 102.7 0 0 0-29 21.13Z"/><path d="M870.65 206.21c-6.71 1-40.53 5.76-59.5-14.68-3.35-3.62-12-12.88-9.54-23.13 2.79-11.8 17.76-15.76 19.68-16.23 13.37-3.33 24.21 3.81 26.13 5.11a31.8 31.8 0 0 1 11.58-4.77c18.91-3.6 33.7 12.46 34.63 13.45 8.32 8.84 9.82 19.54 10.73 26 2.93 20.8-5.72 37.5-9.8 44.29Z"/><path d="M870.43 206.76c-9.81 1.5-41.6 4.56-59.67-14.91-3.32-3.57-12.13-13.07-9.64-23.56 2.78-11.75 17.19-15.9 20-16.61 12.49-3.11 22.93 2.79 26.25 5a31.9 31.9 0 0 1 11.51-4.68c18-3.44 32.37 10.68 35.1 13.59 8.42 9 9.95 19.81 10.86 26.29 2.66 18.86-3.9 34.68-9.86 44.62l-.38.63ZM859.07 153a31.2 31.2 0 0 0-11.38 4.69l-.28.19-.28-.19c-2.88-2-13.26-8.15-25.72-5-2.76.68-16.66 4.68-19.31 15.86-2.36 10 6.18 19.18 9.42 22.66 17.89 19.28 49.72 16 59.05 14.53h.29l23.62 29.7c5.78-9.83 11.92-25.15 9.36-43.33-.89-6.36-2.39-17-10.64-25.78-2.34-2.5-13.75-13.77-28.64-13.77a29 29 0 0 0-5.49.44"/><path fill="#e66d3f" d="M820.41 242.52c.17 8.68.32 16.9 5.45 25.09 1.45 2.35 5.91 9.49 14.33 12.4l.51.17 3.08 44.36a1.7 1.7 0 0 0 .67 1.22 44.4 44.4 0 0 0 26.35 8.94 41 41 0 0 0 4.89-.29 43.56 43.56 0 0 0 25.77-12.61 1.7 1.7 0 0 0 .48-1.32l-6.08-87.3c5.3-5.49 13-15.46 10-24.29-1.09-3.2-2.83-5.18-5.18-5.91s-4.92-.16-7.87 1.6c-1.49-4.79-5.4-13.7-14.76-19.12-3.2-1.86-11.69-5.94-21.29-3.75-3 .69-4.66 1.67-9.59 4.56l-2.38 1.39c-5.87 3.42-12 6.84-18.08 10.16a1.65 1.65 0 0 0-.86 1.19 686 686 0 0 0-3.43 22.11c-1.95 14.33-2.06 18.56-2.01 21.4"/><path d="M864.53 222.38a4.42 4.42 0 1 1-5.69-2.6 4.41 4.41 0 0 1 5.69 2.6"/><path fill="#c4151a" d="M830.63 232.65a4.42 4.42 0 1 1-5.69-2.59 4.43 4.43 0 0 1 5.69 2.59m38.79 2.84a4.42 4.42 0 1 1-5.69-2.6 4.42 4.42 0 0 1 5.69 2.6"/><path d="M832.08 217.57a4.42 4.42 0 1 1-5.69-2.6 4.41 4.41 0 0 1 5.69 2.6"/><path fill="#bf0f19" d="m844.27 222.85-8.43 17.48 13.9 2.49z"/><path d="M871.19 211.25a.92.92 0 0 1-1-.25c-3-3.39-9.24-3-12-1a.92.92 0 0 1-1.06-1.51c3.25-2.29 10.67-2.94 14.43 1.32a.92.92 0 0 1-.08 1.3 1.2 1.2 0 0 1-.29.14m-36.1-2.47a.92.92 0 0 1-.91-.16c-6.84-5.75-14.74-1.21-15.07-1a.92.92 0 0 1-.94-1.58c.09-.06 9.34-5.43 17.19 1.18a.93.93 0 0 1 .12 1.3.86.86 0 0 1-.39.26m14.12 51.37a8.35 8.35 0 0 1-4.79.42c-5.29-1.19-8.9-8-9-8.34a.93.93 0 0 1 .06-.94.91.91 0 0 1 .86-.4l19.58 2.11a.9.9 0 0 1 .75.55.92.92 0 0 1-.11.92c-.18.18-3.24 4.15-7.35 5.68m-11.28-7.24c1.3 2 3.83 5.17 6.89 5.86 3.7.83 7.36-2.31 9.14-4.18Zm12.07-9.4a.73.73 0 0 1-.39 0l-13.9-2.5a.74.74 0 0 1-.53-1l8.42-17.48a.75.75 0 0 1 1-.34.74.74 0 0 1 .34 1l-8 16.6 12.94 2.33a.74.74 0 0 1 .6.85.72.72 0 0 1-.48.54"/><path fill="#c4151a" d="M900.71 203c2.35.73 4.09 2.71 5.18 5.91 3 8.83-4.73 18.8-10 24.29.6-12.42-1.74-22.71-3-28.6 2.9-1.78 5.55-2.32 7.82-1.6"/><path fill="#8d1c20" d="m841.36 280.76 1.09 15.62c18.18-7.67 32.87-21.92 33.32-22.36-5.42 3.84-12.29 5.14-18.86 6.38-5.65 1.07-10.38 1.91-15.55.36"/><path fill="#8d1c20" d="m840.78 280 .73.22c5.18 1.55 10.1.62 15.32-.37 6.54-1.24 13.31-2.52 18.63-6.29l.68.81c-.15.14-15.1 14.71-33.48 22.47l-.69.29Zm16.23.9c-5.09 1-9.92 1.88-15.07.54l1 14.13c12.6-5.46 23.49-14.06 28.88-18.71-4.61 2.14-9.77 3.14-14.82 4.07Z"/><path d="M900.79 219.86a.73.73 0 0 0 .71-.62.8.8 0 0 0 0-.22c0-.13.06-.34.11-.62.37-2.13 1.24-7.11-.36-10.42a.71.71 0 0 0-.62-.4.72.72 0 0 0-.64.35c-1.06 1.82-3.2 4.91-4.43 5.47a.75.75 0 0 0-.36 1 .71.71 0 0 0 .94.37c1.46-.67 3.27-3.2 4.29-4.79.7 2.85 0 6.62-.23 8.18-.16.92-.2 1.11 0 1.4a.7.7 0 0 0 .48.31Z"/><path fill="#fede4f" d="m771.63 430.91-49.29 53.42-11.23 12.15c-7.89-8.47-15.53-20.68-22.39-33.74-5.22-9.91-10-20.31-14.08-29.95-9.15-21.49-15-39.2-15-39.2l26.5-19.35 23.13-16.9 23-16.79 25.93-19 5-3.64.15 2Z"/><path fill="#fede4f" d="M711.11 498.5a2 2 0 0 1-1.48-.64c-7.23-7.78-14.87-19.28-22.7-34.18-4.7-8.93-9.46-19.05-14.15-30.1-9.08-21.33-15-39.18-15-39.36a2 2 0 0 1 .73-2.26L757 320l5-3.64a2 2 0 0 1 2-.2 2 2 0 0 1 1.17 1.68l8.41 113a2 2 0 0 1-.53 1.52l-60.45 65.49a2 2 0 0 1-1.48.65Zm-49.05-104.15c1.55 4.58 6.88 19.9 14.44 37.65 4.65 10.94 9.36 21 14 29.8 7.12 13.57 14 24.22 20.62 31.69l58.42-63.3-8.07-108.48-2 1.46a.2.2 0 0 1-.07.05Zm385.68-17.03q-16.73 30.36-32.68 63.21-10.84 22.41-20.36 44.14l-6.39-4.78-62.58-46.84.72-130.6c15.81 7.5 41.49 20.26 59 30.83q6.45 3.9 12.51 7.78c13.37 8.54 25.26 17 35.78 25.12 4.99 3.82 9.63 7.52 14 11.14"/><path fill="#fede4f" d="M994.55 486.68a3.6 3.6 0 0 1-1.92-.68l-69-51.61a1.82 1.82 0 0 1-.83-1.55l-.8-133.25a2 2 0 0 1 1.56-1.63 4 4 0 0 1 2.88.18c17.62 8.37 44.92 24 60.92 33.64 4.39 2.64 8.62 5.28 12.59 7.83 12.48 8 24.59 16.47 36 25.25a440 440 0 0 1 14 11.21 1.6 1.6 0 0 1 .54 2.06C1039 399 1028 420.22 1017.81 441.27c-7 14.56-13.88 29.39-20.33 44.08a2.58 2.58 0 0 1-2.09 1.31 4.7 4.7 0 0 1-.84.02m-65.86-54.3 64.65 48.38c6-13.67 12.41-27.44 19-41 10-20.72 20.82-41.63 32.11-62.17-4.3-3.54-8.47-6.86-12.72-10.13-11.28-8.68-23.25-17.08-35.59-25-3.92-2.52-8.11-5.13-12.44-7.73-14.56-8.77-40.22-23.62-56.17-31.33Z"/><path fill="#fff" d="M990.83 839.34c-2.05-10.24-1.09-23.2-1-23.75l4 .31c0 .13-1 13 1 22.65Z"/><path fill="#fede4f" d="M852.6 333.59q-2.18 24.18-4.26 48.36-1 11.83-2 23.7-4.71 56.24-8.86 112.53-4.94 67-9.08 134.16a284.35 284.35 0 0 1-109.95-28.25 1118 1118 0 0 0 29.25-137.18q1.13-7.65 2.15-15.18A1118 1118 0 0 0 759.79 328v-8.48c3.49-2.29 7.35-4.61 25.92-10.47l5.15-1.61c8.31-2.55 19.06-5.69 33.11-9.64.03-.06 2.4 20.66 28.63 35.79"/><path fill="#fede4f" d="M828.39 654.41h-.1A286.35 286.35 0 0 1 717.54 626a2.06 2.06 0 0 1-1.09-2.43 1120 1120 0 0 0 29.19-136.92c.76-5.14 1.49-10.24 2.15-15.16a1120 1120 0 0 0 9.92-143.51v-8.46a2.09 2.09 0 0 1 .94-1.75c3.94-2.58 8.38-5 26.29-10.67l.16-.05 5.16-1.61c8.54-2.62 19.38-5.78 33.16-9.66a2.1 2.1 0 0 1 1.72.28 2.06 2.06 0 0 1 .91 1.48c0 .2 2.67 19.92 27.58 34.29a2.09 2.09 0 0 1 1 2c-1.54 17.1-2.93 32.92-4.26 48.34l-2 23.7c-3.15 37.58-6.13 75.44-8.86 112.51-3.27 44.5-6.33 89.63-9.08 134.13a2.07 2.07 0 0 1-2.04 1.9M720.91 623a282.1 282.1 0 0 0 105.54 27.17c2.71-43.86 5.72-88.3 8.95-132.12 2.73-37.09 5.71-75 8.86-112.55q1-11.87 2-23.71c1.28-15 2.64-30.45 4.13-47.06-20.94-12.53-26.59-28.4-28-34.36-12.72 3.59-22.85 6.55-30.9 9l-5 1.55-.15.06c-17 5.37-21.53 7.74-24.47 9.61v7.38a1124.5 1124.5 0 0 1-10 144c-.66 4.94-1.39 10.05-2.15 15.2A1123 1123 0 0 1 720.91 623"/><path fill="#fdbe4f" d="M855.63 333.59 835 343.68l-21.7-42.91 16.25-26.69s12 29.25 26.08 38.33Z"/><path fill="#fdbe4f" d="m834.52 345.07-22.41-44.34 17.63-29 .78 1.92c.12.29 12 29.05 25.67 37.85l.48.3v22.41Zm-20-44.25 21 41.46 19.13-9.34V313c-12.09-8.17-22.3-30-25.19-36.61Z"/><path fill="#fede4f" d="m1010 619.05-84.73 23.2q-8.19-34.25-15.17-70.61a1611 1611 0 0 1-27.24-238c3-6.29 10.65-19.66 26.23-28.24a60.1 60.1 0 0 1 16.14-6.06Q948.6 383.76 971 468.49q4.62 17.43 9.17 34.88 1.29 4.89 2.56 9.77 1.72 6.58 3.43 13.2 12.05 46.31 23.84 92.71"/><path fill="#fede4f" d="M925.23 644.32a2 2 0 0 1-1.06-.29 2 2 0 0 1-1-1.3c-5.56-23.35-10.66-47.13-15.15-70.7a1618 1618 0 0 1-27.27-238.36 1.94 1.94 0 0 1 .2-1c4.28-8.85 12.46-21.09 27.09-29.16a62.1 62.1 0 0 1 16.7-6.26 2.08 2.08 0 0 1 2.45 1.47A13953 13953 0 0 1 973 468q4.62 17.43 9.17 34.89l.27 1q1.15 4.37 2.29 8.73 1.72 6.6 3.43 13.21c8.1 31.09 16.11 62.29 23.81 92.72a2.07 2.07 0 0 1-1.47 2.51l-84.73 23.2a2 2 0 0 1-.54.06M885 334a1613.6 1613.6 0 0 0 27.18 237.22c4.35 22.8 9.26 45.81 14.61 68.43l80.69-22.1c-7.54-29.79-15.38-60.3-23.3-90.72-1.13-4.41-2.28-8.8-3.43-13.2-.75-2.91-1.52-5.81-2.29-8.72l-.27-1q-4.6-17.45-9.19-34.91c-14.58-55.2-29.79-111.46-45.22-167.24a58.2 58.2 0 0 0-13.67 5.38A61.4 61.4 0 0 0 885 334"/><path fill="#fdbe4f" d="M882.86 333.59 902 343.68l20.13-42.91-15.09-26.69s-11.1 29.25-24.21 38.33Z"/><path fill="#fdbe4f" d="m902.49 345.06-20.64-10.86v-22.32l.44-.3C895 302.78 906 274 906.13 273.72l.76-2 16.4 29ZM883.87 333l17.69 9.31L921 300.82l-13.79-24.41c-2.74 6.73-12.18 28.39-23.36 36.52Z"/><path d="m1054.32 439.41-3-.83c5.05-18.18 11-27.3 11.29-27.68l2.58 1.72c-.04.09-5.97 9.13-10.87 26.79m240.49 45.44h-.29L1075.9 479a10.33 10.33 0 0 1-10.05-10.61l.2-7.84a10.3 10.3 0 0 1 6.77-9.43L1184.55 410v-1.54l1.91.82 2-.72v1.53l110.64 47.05a10.28 10.28 0 0 1 6.29 9.79l-.21 7.82a10.34 10.34 0 0 1-10.32 10.06ZM1186.4 413 1074 454.39a6.86 6.86 0 0 0-4.51 6.29l-.21 7.84a6.9 6.9 0 0 0 6.72 7.08l218.62 5.81a6.9 6.9 0 0 0 7.08-6.71l.21-7.82a6.9 6.9 0 0 0-4.2-6.54L1186.41 413Z"/><path fill="#fff" d="m1387.91 539.56-72.55 75.29-15.67-14.07-.58 195.59-223.28-5.93v-2.52l1.17-200.19-17.5 15.71-69.6-72.25 87.93-90.87 15-5.72 19.68-7.51 2.13-.81 16.51 30.84c25 46.64 91.71 47 117.18.63l12-21.8 39.84 17.16Z"/><path d="m1188.71 413.48-3.33-.09v-2l-1 .06c-1-19.13-3.32-24.54-3.34-24.59a21.4 21.4 0 0 0-1.94-3.3 13.5 13.5 0 0 1-2.18-4.46c-2-6.65-1.42-12.53 1.71-17.48.56-.9 5.79-8.72 15.61-9a19.12 19.12 0 0 1 14.54 32.32l-3.09-2.87a14.9 14.9 0 0 0-11.31-25.23c-7.79.25-12 6.79-12.19 7.07-3.69 5.84-1.84 12-1.24 14a9.6 9.6 0 0 0 1.62 3.28 25.3 25.3 0 0 1 2.28 3.9c.27.57 2.71 6.18 3.74 26.16Z"/><path fill="#d4e7ff" d="m1373.59 529.25-72.54 75.3-15.68-14.07-.58 195.59-223.28-5.94v-2.52l1.13-200.19-17.5 15.71-69.6-72.24 87.94-90.89 15-5.71 19.68-7.51 2.13-.81 16.51 30.83c25 46.64 91.71 47 117.18.63l12-21.79 39.85 17.15Z"/><path fill="none" stroke="#000" stroke-miterlimit="10" stroke-width="4" d="m1387.91 541.47-72.55 75.29-15.67-14.07-.58 195.59-223.28-5.93v-2.52l1.17-200.19-17.5 15.71-69.6-72.25 87.93-90.87 15-5.72 19.68-7.51 2.13-.81 16.48 30.81c25 46.64 91.71 47 117.18.62l12-21.79 39.81 17.17Z"/><path d="M642.82 440.45c-3.21-10.73 10.76-28.87 11.36-29.64l2.44 1.9c-3.79 4.88-13.12 19.21-10.83 26.85Z"/><path fill="#e66d3f" d="M1227.2 378.28c-3.8 7-10.85-.58-10.85-.58-4.1 11.71-9.56 8.59-11.64 6.81.54.91.85 2.66-1.1 5.82a5.27 5.27 0 0 1-3.14 2.42c-3.32.89-7.18-1.49-7.18-1.49a11.6 11.6 0 0 1-1.39 3c-1.31 1.47-4.12 1-4.9.85-2.9-.5-5.82-2.45-11.47-10.19a115 115 0 0 1-7.55-11.81l-1.22-5c4.41-.92 16.27 10.69 21.7 16.31-6.23-6.81-20.31-23.39-14.84-29.28 4-4.26 11.37 3.05 17 10.12-5.18-7.88-10.6-17.74-7.48-20.52 5.42-4.82 20 15.91 26.68 24.19 0 0-16-30.42-10.81-31.83 3.46-.93 13 7.79 19.46 15.62 4.7 8.13 11.25 20.9 8.73 25.56"/><path fill="#e66d3f" d="M1188.9 396.91a12.3 12.3 0 0 1-2.17-.2c-3.23-.55-6.45-2.56-12.48-10.82a115 115 0 0 1-7.65-12 1.3 1.3 0 0 1-.16-.39l-1.22-5a1.6 1.6 0 0 1 .2-1.22 1.55 1.55 0 0 1 1-.7c2-.41 4.91.84 8.85 3.71-4.13-6.59-6.1-12.68-2.82-16.2a5.36 5.36 0 0 1 4.23-1.77c1.82.07 3.88 1 6.21 2.71-3.49-7.5-2.29-10.13-.8-11.46a4.5 4.5 0 0 1 3.46-1.09c4.37.4 10 6.14 16.39 14-3.45-7.73-6.53-16.15-5.2-19.2a2.85 2.85 0 0 1 1.86-1.65c6.18-1.65 20.48 15.41 21.08 16.14a2 2 0 0 1 .16.22c8 13.83 11 22.93 8.74 27-1.51 2.8-3.49 3.59-4.9 3.77-2.58.32-5.07-1.13-6.69-2.39-1.78 4.1-4 6.53-6.59 7.23a6.5 6.5 0 0 1-3.86-.2 11.7 11.7 0 0 1-1.6 3.73 6.76 6.76 0 0 1-4.07 3.11 10.74 10.74 0 0 1-6.74-.83 6 6 0 0 1-1.05 1.89 5.31 5.31 0 0 1-4.18 1.61m-19.43-24.35a113 113 0 0 0 7.34 11.46c5.38 7.38 8.07 9.16 10.45 9.57s3.24-.1 3.46-.34a5.6 5.6 0 0 0 .65-1.43l.45-1.16a1.63 1.63 0 0 1 1-.91 1.6 1.6 0 0 1 1.32.16c.92.56 3.77 1.89 5.94 1.31a3.67 3.67 0 0 0 2.2-1.72c1.14-1.85 1.55-3.41 1.09-4.17a1.58 1.58 0 0 1 2.39-2c.76.65 2.28 1.69 3.84 1.27 1.35-.36 3.37-1.94 5.28-7.4a1.59 1.59 0 0 1 1.17-1 1.6 1.6 0 0 1 1.49.48c.87.93 3.61 3.3 5.78 3a3.54 3.54 0 0 0 2.51-2.13c1.57-2.91-1.66-11.81-8.64-23.85-7.39-8.86-15.35-15.2-17.57-15-1 2.65 5.14 17.27 11.63 29.58a1.58 1.58 0 0 1-2.63 1.74c-1-1.22-2.16-2.72-3.43-4.36-5.68-7.3-15.18-19.52-19.9-20a1.31 1.31 0 0 0-1.07.31c-1 .92-.55 5.84 7.76 18.47a1.59 1.59 0 0 1-2.57 1.86c-7.37-9.24-11.2-10.72-12.82-10.78a2.14 2.14 0 0 0-1.79.75c-3.06 3.3 2.77 13.94 14.85 27.13a1.58 1.58 0 0 1-2.31 2.17c-9-9.27-15.27-14.15-18.46-15.5Z"/><path d="M505.82 371.41c.4-.71 9.79-17.54 14.57-20.51l1.53 2.08c-3.61 2.25-11.24 15.06-13.88 19.8Zm11.05 9.11c.55-.77 13.49-18.84 16.21-22.11l2 1.67c-2.67 3.2-16 21.77-16.09 22Zm7.13 9.92c2.82-3.26 17-19.59 19.34-21l1 2c-1.36.85-10.62 11.17-18.63 20.43Zm666.44-3.44c-.59-.53-14.41-13.14-16.16-18.32l2.31-1c1.32 3.91 11.73 14 15.63 17.51Zm11.05-8.4c-.6-.68-14.81-16.92-17.3-20.22l2-1.53c2.43 3.23 17 19.92 17.18 20.08Zm10.96-4.51c-2.45-3.39-14.75-20.42-15.59-22.95l2.15-.5c.51 1.49 8.2 12.52 15.19 22.15Z"/></g><path fill="#fdbe4f" d="M760.48 514.98h38.49v15.68h-38.49zm210.527-87.984 22.027-31.564 12.859 8.973-22.028 31.564zm-140.89-10.119-23.458 30.516-12.432-9.557 23.458-30.515zm-44.93-92.836-23.458 30.516L749.297 345l23.458-30.515zM942.154 588.58l30.792-23.094 9.408 12.544-30.792 23.094zM738.94 379.909l27.217 27.216-11.088 11.088-27.216-27.217zm-36.973 18.287 3.709 38.31-15.607 1.512-3.71-38.31zm227.951 83.3 27.216 27.217-11.087 11.087-27.217-27.216zM950.04 325.28l27.216 27.216-11.087 11.087-27.217-27.216zm-29.586 68.618 27.216 27.216-11.087 11.088-27.217-27.217zM749.399 582.677l27.217 27.217-11.088 11.087-27.216-27.216z"/></g></svg>