<svg xmlns="http://www.w3.org/2000/svg" viewBox="0 0 2000 2000"><path fill="#1b136a" d="M832.018 373.637c238.186-83.436 356.38-43.698 418.306 0 183.376 129.398 91.421 450.053 226.557 1415.331a908 908 0 0 1-46.329 19.815c-38.666 15.285-449.242 170.178-818.812-46.725-42.532-24.964-108.418-68.876-178.13-141.29 32.812-102.38-3.822-1.44 267.688-720.91z"/><path fill="#1b136a" d="m869.01 291.589 33.097 172.162 160.202 146.852L1201.373 405.9l8.066-122.655a1580 1580 0 0 0-340.43 8.344"/><path fill="#4a53e2" d="M1413.474 450.219c110.07 51.689 171.738 115.354 207.319 162.61 125.11 166.163 34.775 300.028 150.189 575.17 27.761 66.182 57.497 117.464 58.631 200.276.815 59.454-13.552 103.139-.78 180.205 7.467 45.052 20.792 80.901 31.15 104.576h-373.805c-15.396-75.098-14.58-134.97-10.806-176.308 5.046-55.254 16.225-86.666 6.356-139.646-8.91-47.832-23.494-51.6-42.276-103.464-30.596-84.487-8.28-119.724-25.978-243.023-4.317-30.071-12.442-75.339-29.07-130.176-47.078-145.054-34.443-297.49 29.07-430.22"/><path fill="#ff6a00" d="m1474.746 1593.047 351.63-40.25c19.597 36.247 31.491 77.09 33.607 120.26l-368.446 45.192a562 562 0 0 1-16.791-125.202"/><path fill="#e5e5ff" d="M1846.7 1600.313s-269.666 52.285-367.939 49.164l7.572 46.03s288.117-30.766 369.266-59.984c0 0-1.046-23.217-8.9-35.21"/><path fill="#4a53e2" d="M713.997 414.565c-150.761 33.57-227.624 106.313-261.347 144.862-37.293 42.629-64.912 111.858-120.151 250.317-48.967 122.736-73.45 184.105-80.435 256.08-8.26 85.111 8.097 107.149-16.354 164.45-23.406 54.853-56.976 78.21-78.904 149.55-10.495 34.144-13.6 63.914-14.548 84.079l289.254 106.801c31.015-51.205 71.17-133.02 81.214-238.634 8.676-91.227-14.557-100.922 3.337-170.215 23.96-92.785 76.372-117.056 133.502-248.648 17.51-40.332 28.423-74.53 34.677-96.033 40.325-127.787 51.627-265.463 29.755-402.61"/><path fill="#ff6a00" d="M174.173 1338.548s245.349 108.109 313.228 114.364c0 0-16.116 82.6-55.889 119.112l-289.254-106.218s-8.085-62.297 31.915-127.258"/><path fill="#e5e5ff" d="M156.348 1374.482s188.926 109.378 317.014 127.074l-12.566 29.289s-259.312-68.322-313.4-127.43z"/><path fill="#fa0" d="M832.018 373.637c-190.512 67.322-217.377 61.806-235.853 83.995-38.632 46.393 13.275 119.886 20.807 226.237 6.687 94.417-25.106 158.043-51.958 228.226-97.902 255.88-98.686 560.709-98.686 560.709l490.292 115.701s95.676-224.72 40.05-459.465c-17.877-75.445-12.943-101.014-16.763-138.266-9.844-95.992-3.881-237.923 74.456-426.99-78.736-51.678-153.94-114.762-222.345-190.147m277.103 149.077s72.228-22.25 141.203-149.077a11679 11679 0 0 1 102.63 42.832c126.52 53.512 168.443 73.874 169.38 102.351.354 10.748-5.343 16.234-15.018 31.151-62.922 97.001-50.901 217.857-47.839 248.648 1.569 15.77 3.053 35.03 10.588 59.41 17.98 58.171 51.961 83.018 67.068 189.057 7.185 50.435 8.068 108.095-1.937 178.739-28.993 204.703 80.034 151.301 39.983 387.155 0 0-313.73 77.876-502.857 0 0 0 169.103-140.176 89.001-324.855-80.1-184.677-11.125-378.208-8.9-539.546s-43.302-225.865-43.302-225.865"/><path fill="#ff6a00" d="M467.113 1446.996s-26.954 38.726-33.502 174.819l431.783 117.283 91.226-149.37zm627.003 146.051s-73.463 61.157-82.672 174.417c177.331 52.245 363.867 54.606 544.822 6.831l23.674-193.29a1304.3 1304.3 0 0 1-485.824 12.042M814.496 377.531l54.514-85.942c117.089 120.869 133.57 126.19 149.354 152.693 30.613 51.397 35.999 119.502 35.999 119.503.58 0-44.92-7.944-93.91-34.758-84.664-46.34-127.86-116.774-145.957-151.496m318.601 209.358c-13.282-22.494-27.425-55.257-22.95-92.544 6.625-55.193 50.828-76.58 99.292-211.1l66.333 99.658c-25.658 77.916-73.528 149.148-142.675 203.986"/><path fill="#e5e5ff" d="M1237.13 324.849s-25.427 127.89-124.6 211.828c0 0 3.588 15.934 8.811 27.108 0 0 100.172-72.298 132.934-213.179zM830.367 352.51l15.79-24.895s61.432 153.955 200.537 190.66l5.507 28.289c-96.183-35.005-174.648-103.225-221.834-194.054m555.603 1330.15c-117.053 23.358-190.467 13.245-308.582-3.127-5.068-.703-9.656 6.622-3.9 9.251 96.495 44.088 232.098 45.198 334.47 21.767 10.775-2.466 27.714-4.987 29.818-18.367 4.238-26.94-40.59-11.763-51.805-9.524m-502.783-56.214c-39.063-13.794-71.133-6.029-168.052-36.462-27.51-8.638-54.936-17.884-81.61-28.86-26.113-10.746-51.397-27.84-78.748-34.714-14.59-3.666-26.735 15.017-15.115 25.966 21.05 19.835 51.577 30.519 77.97 41.541 51.79 21.63 101.709 36.98 177.307 46.734 28.203 3.64 60.299 8.601 88.248 1.618 8.321-2.08 7.247-13.262 0-15.823"/><path fill="#4a53e2" d="M748.858 1100.733s-72.592 109.516-206.929 202.133l23.363 61.745s161.037-94.286 230.291-216.94zm552.723 40.899s51.168 121.018 166.137 236.804l-34.341 56.382s-140.905-122.346-186.37-255.662z"/><ellipse cx="1307.534" cy="835.331" fill="#ff6a00" rx="124.131" ry="91.226"/><path fill="#1b136a" d="M413.252 728.8c-26.188 52.892-103.776 216.135-114.94 242.422-10.407 24.502-19.064 49.95-21.573 76.593-2.598 27.569 1.108 57.075 17.453 80.097 2.327 3.276 7.29.48 5.43-3.175-38.077-74.85 4.852-147.218 40.868-225.271 13.72-29.733 63.435-138.441 76.591-168.427 1.123-2.558-2.543-4.837-3.829-2.239m-138.887 514.297c-3.704 4.693-3.431 3.977-35.081 69.36-1.73 3.572-3.934 7.178-4.866 11.05-1.086 4.515 4.52 6.362 7.079 2.985 2.221-2.933 27.281-58.24 28.421-60.742 2.987-6.552 6.764-13.322 8.32-20.398.448-2.037-2.324-4.216-3.873-2.255m930.15 67.771c-13.507-80.023-33.22-193.098-48.229-272.319-.681-3.594-5.965-2.017-5.426 1.496 30.005 195.39 50.097 284.001 53.191 337.51 3.084 53.379-7.343 74.088-9.832 89.419-.58 3.572 4.028 6.025 6.11 2.576 11.102-18.387 13.586-56.073 13.219-77.548-.465-27.248-4.507-54.31-9.033-81.134m-32.765 233.609c-1.591 3.83-7.878 21.98-10.036 30.816-.35 1.432.335 2.955 1.724 3.514 1.242.5 3.119.158 3.72-1.219 3.678-8.42 9.695-26.24 11.039-31.334 1.026-3.889-4.564-6.315-6.448-1.777m452.629-87.078c-10.727-77.574-76.001-146.46-58.963-224.716.82-3.768-4.804-5.372-5.81-1.602-2 7.51-3.8 11.778-4.203 26.302-2.11 76.326 60.652 144.25 61.597 218.247.222 17.628-2.745 23.537-3.013 32.072-.11 3.531 5.134 5.064 6.785 1.837 6.583-12.865 5.607-37.662 3.607-52.14m-1171.458 4.663c-.027-3.12-4.623-3.795-5.462-.739-.366 1.331-1.385 2.272-1.764 3.623-.447 1.584-.007.02-2.139 15.954-5.568 41.524-7.659 53.312-8.03 68.499-.087 3.591 5.458 4.4 6.307.853 3.497-14.593 4.926-29.657 6.816-44.522 4.898-38.523 4.856-37.96 4.897-38.53.144-2.02-.61-3.243-.625-5.138m1107.11 136.794c-6.265 82.296-6.602 80.877-6.466 94.975.032 3.335 5.487 4.355 6.047.819 2.259-14.289 2.116-18.132 7.7-95.794.337-4.68-6.927-4.647-7.281 0M680.968 335.172c-14.835-17.931-16.09-17.679-90.665-99.157-88.735-96.947-82.724-91.62-91.02-98.804-2.592-2.244-7.385.747-5.094 3.932 5.83 8.107 7.545 9.288 44.324 49.509l91.237 100.08c15.137 16.656 29.76 34.067 45.74 49.917 3.605 3.575 8.602-1.7 5.478-5.477m53.55-59.561c-7.617-17.016-8.967-17.72-58.974-107.336-2.45-4.392-9.193-.46-6.744 3.942 50.49 90.758 50.15 91.746 60.23 106.602 2.33 3.435 7.145.495 5.488-3.208M539.222 401.655c-25.003-19.75-66.114-45.813-132.469-93.113-3.186-2.27-6.29 3.033-3.074 5.26 75.47 52.26 102.458 74.372 131.852 92.636 2.867 1.781 6.447-2.605 3.69-4.783m976.973-277.225c-13.133 14.439-24.523 30.85-36.578 46.2l-89.543 114.442c-11.746 15.07-14.39 18.023-15.837 22.25-1.052 3.07 2.815 5.936 5.494 4.224 3.806-2.431 6.402-6.36 9.243-9.836 7.148-8.75 105.37-133.48 99.133-125.547 11.898-15.133 24.955-29.882 35.73-45.835 3.083-4.568-3.931-9.977-7.642-5.897m4.256 204.185c-11.033 6.356-21.468 14.529-37.243 26.322-.402.301-7.728 5.717-9.229 7.065-.951.856-1.642 1.883-2.627 2.704-3.308 2.758 1.02 8.358 4.613 5.979 1.07-.709 2.266-1.072 3.362-1.753 1.837-1.143 6.438-4.63 21.474-15.784 8.207-6.087 16.351-12.15 23.781-19.178 2.838-2.683-.796-7.276-4.131-5.355"/></svg>