<svg xmlns="http://www.w3.org/2000/svg" fill="none" viewBox="0 0 3000 3000"><path fill="#69B7FF" d="M1263.56 574.238c-25.36-18.045-36.06-42.598-46.56-66.378-11.31-25.778-43.83-99.888-11.67-177.995 28.07-68.15 88.03-97.536 119.77-113.099 30.1-14.758 107.14-52.49 191.3-19.978 59.29 22.91 91.19 68.762 103.12 88.159 31.54-23.457 94.44-62.027 174.64-58.193 24.33 1.16 90.22 4.286 106.33 41.567 17.24 39.214-30.13 93.218-54.78 121.445-58.83 67.054-124.37 96.215-209.44 133.077a976.5 976.5 0 0 1-236.22 66.539c-61.61 9.087-102.72 9.119-136.49-15.144"/><path fill="#0C106F" d="M1434.76 1330.94a42.96 42.96 0 0 0 15.45 21.89 43.03 43.03 0 0 0 25.4 8.5c18.63 0 37.7-12.67 41.15-31.32.46-2.53.62-5.1.48-7.67a23.11 23.11 0 0 0-23.84-21.82l-36.77 1.04c-3.48.06-6.91.92-10.02 2.49a23.15 23.15 0 0 0-7.93 6.61 23 23 0 0 0-4.27 9.41c-.7 3.42-.61 6.95.25 10.32 0 .19.03.38.1.55" opacity=".2"/><path fill="#0C106F" d="M1462.89 1615.08c-30.65-.02-60.8-7.71-87.71-22.37l-90.67-49.23a143 143 0 0 1-49.56-44.71 143 143 0 0 1-23.85-62.33l-34.41-266.96c-.11-.85-.05-1.71.18-2.53.22-.83.61-1.6 1.13-2.27.52-.68 1.17-1.24 1.91-1.66a6.44 6.44 0 0 1 4.93-.63c.83.22 1.6.6 2.27 1.13.68.52 1.24 1.17 1.66 1.91.43.74.7 1.56.81 2.4l34.41 266.96a130.2 130.2 0 0 0 21.68 56.7 130.2 130.2 0 0 0 45.05 40.68l90.71 49.23a170.44 170.44 0 0 0 81.02 20.78c28.32.09 56.21-6.87 81.15-20.26l87-46.56a129.35 129.35 0 0 0 46.88-42.53 129.3 129.3 0 0 0 21.08-59.68l24.94-265.09c.08-.85.33-1.67.72-2.42.4-.75.95-1.42 1.6-1.96.66-.54 1.41-.95 2.22-1.2.82-.25 1.67-.33 2.52-.25.84.08 1.67.32 2.42.72s1.41.94 1.95 1.6c.55.65.95 1.41 1.2 2.22s.34 1.67.26 2.51l-24.91 265.06c-2.18 23.46-10.15 46-23.19 65.62a142.2 142.2 0 0 1-51.53 46.77l-87 46.53a183.76 183.76 0 0 1-86.87 21.82"/><path fill="#0C106F" d="M1391 1181.82c-.85.04-1.69-.08-2.49-.36-.8-.29-1.54-.72-2.17-1.29a6.3 6.3 0 0 1-1.5-2.02c-.37-.76-.58-1.59-.62-2.44-.05-.85.07-1.69.36-2.49.28-.8.72-1.54 1.28-2.16.57-.63 1.26-1.15 2.02-1.51.77-.37 1.6-.58 2.44-.62 122.45-13.18 148.93-120.16 150-124.7a6.46 6.46 0 0 1 2.66-3.82 6.48 6.48 0 0 1 4.53-1.03c1.59.24 3.04 1.06 4.05 2.3a6.4 6.4 0 0 1 1.45 4.42c-.19 3.48-3.83 86.13 100.7 97.79 1.7.19 3.27 1.06 4.34 2.4a6.47 6.47 0 0 1 1.37 4.77 6.48 6.48 0 0 1-2.4 4.35 6.5 6.5 0 0 1-4.76 1.37c-77.08-8.6-101.28-53.84-108.82-83.97-16.53 36.15-58.35 98.95-151.76 109.01z"/><path fill="#0C106F" d="M1275.35 1195.45c-10.15 0-20.88-.36-32.22-1.13-1.71-.11-3.3-.9-4.43-2.18a6.47 6.47 0 0 1-1.59-4.68 6.45 6.45 0 0 1 6.86-6.03c90.48 6.03 134.91-14.6 156.28-32.96 22.55-19.34 24.58-39.83 24.65-40.7.14-1.7.94-3.27 2.24-4.38 1.3-1.1 2.98-1.65 4.68-1.52 1.7.14 3.27.93 4.38 2.22a6.4 6.4 0 0 1 1.55 4.65c-.35 3.8-8.34 86.71-162.4 86.71"/><path fill="#0C106F" d="M1191.87 1199.83h-6.8a6.45 6.45 0 0 1-5.79-4.23c-.29-.8-.42-1.64-.38-2.49.03-.84.24-1.68.59-2.44.36-.77.86-1.46 1.49-2.03a6.46 6.46 0 0 1 4.64-1.7c79.42 3.22 108.04-56.32 109.23-58.84a6.44 6.44 0 0 1 3.63-3.13c1.57-.54 3.28-.45 4.79.24 1.5.69 2.68 1.94 3.29 3.48s.61 3.26-.01 4.79c-.33.55-31.55 66.35-114.68 66.35m533.04-11.73c-78.46 0-91.57-69.02-91.7-69.73-.15-.83-.13-1.69.05-2.51.18-.83.53-1.61 1.01-2.31a6.6 6.6 0 0 1 1.82-1.74c.71-.45 1.51-.77 2.34-.91.83-.15 1.69-.13 2.51.05.83.18 1.61.52 2.31 1.01a6.45 6.45 0 0 1 2.66 4.16c.41 2.28 10.24 52.42 67.37 58.48l-27.77-34.54a6.48 6.48 0 0 1-1.25-4.68 6.42 6.42 0 0 1 2.37-4.22 6.43 6.43 0 0 1 4.64-1.39c1.66.16 3.2.96 4.29 2.23l36.67 45.6c.75.94 1.23 2.07 1.37 3.27s-.06 2.41-.57 3.5a6.36 6.36 0 0 1-2.34 2.67 6.5 6.5 0 0 1-3.39 1.03z"/><path fill="#0C106F" d="M1186.23 1213.11a7.8 7.8 0 0 1-1.87-.26c-38.19-11.47-56.23-46.72-49.5-96.67 3.93-29.42 16.47-61.7 35.22-90.86 6.31-9.89 13.71-19.05 22.04-27.297a124.5 124.5 0 0 1 58-32.738 103.5 103.5 0 0 1 37.28-2.771c.85.131 1.66.428 2.39.873s1.37 1.03 1.88 1.721c.5.691.87 1.475 1.07 2.307s.24 1.696.11 2.542a6.6 6.6 0 0 1-.87 2.391 6.5 6.5 0 0 1-1.73 1.874c-.69.505-1.47.87-2.3 1.073a6.6 6.6 0 0 1-2.55.108 92.1 92.1 0 0 0-32.22 2.513 111.8 111.8 0 0 0-52.04 29.384 145 145 0 0 0-20.23 25.04c-17.76 27.61-29.58 58-33.29 85.65-3.38 25.29-2.67 69.69 40.47 82.61 1.5.44 2.79 1.4 3.63 2.71s1.17 2.88.95 4.42a6.48 6.48 0 0 1-2.19 3.96 6.45 6.45 0 0 1-4.25 1.54zm541.75-8.03a6.45 6.45 0 0 1-6.31-4.99 6.43 6.43 0 0 1 .47-4.23 6.42 6.42 0 0 1 3-3.02c15.34-7.48 36.67-40.54 19.33-117.07-17.11-75.62-49.75-89.154-50.07-89.283a6.45 6.45 0 0 1-3.58-3.37 6.48 6.48 0 0 1-.16-4.911 6.47 6.47 0 0 1 3.32-3.573 6.45 6.45 0 0 1 4.87-.229c1.61.58 39.31 15.112 58.19 98.506 17.88 78.91-2.96 120.15-26.26 131.5-.87.43-1.83.66-2.8.67m-184.38-17.33a6.46 6.46 0 0 1-3.77-1.23c-.69-.5-1.27-1.12-1.71-1.85-.45-.72-.74-1.53-.87-2.36-.14-.84-.1-1.7.1-2.52.2-.83.56-1.61 1.06-2.29a49.4 49.4 0 0 1 14.68-14.32c5.83-3.7 12.38-6.13 19.22-7.14 26.58-3.58 51.2 15.82 52.23 16.66a6.4 6.4 0 0 1 1.7 1.92c.44.74.72 1.57.82 2.42.11.86.05 1.73-.19 2.56a6.3 6.3 0 0 1-1.17 2.28 6.5 6.5 0 0 1-4.42 2.39c-.86.08-1.73-.01-2.55-.27-.83-.26-1.59-.69-2.24-1.25-.2-.16-21.43-16.82-42.54-13.92-5.09.82-9.95 2.68-14.28 5.49-4.33 2.8-8.02 6.47-10.85 10.78-.6.83-1.39 1.49-2.29 1.95-.91.46-1.91.7-2.93.7m-285.04 40.47a6.5 6.5 0 0 1-3.36-.96 6.5 6.5 0 0 1-2.37-2.58 6.4 6.4 0 0 1-.67-3.43c.09-1.18.51-2.32 1.21-3.28 12.25-16.69 26.49-26.29 42.38-28.55a57.53 57.53 0 0 1 40.08 10.25 6.42 6.42 0 0 1 2.46 4.27c.22 1.7-.24 3.41-1.28 4.77a6.48 6.48 0 0 1-4.28 2.46c-1.69.22-3.41-.24-4.76-1.29a44.85 44.85 0 0 0-30.58-7.67c-12.24 1.78-23.55 9.67-33.61 23.37a6.48 6.48 0 0 1-5.22 2.64m215.35 139.58c-30.45 0-44.5-32.96-45.11-34.41a6.4 6.4 0 0 1 .18-4.77 6.42 6.42 0 0 1 3.42-3.34c1.53-.63 3.24-.65 4.78-.06s2.79 1.75 3.51 3.24c0 .29 11.76 27.49 34.63 26.42 22.88-1.06 35.45-27.26 35.45-27.52a6.434 6.434 0 0 1 8.41-3.04c1.53.68 2.73 1.92 3.35 3.47.63 1.55.62 3.28 0 4.83-.61 1.38-15.37 33.6-46.69 35.12zm-262.91.2h-.74a6.5 6.5 0 0 1-4.29-2.4 6.48 6.48 0 0 1-1.35-4.72c1.68-14.73 13.21-42.89 44.79-44.12.85-.03 1.69.1 2.49.39.79.3 1.52.74 2.14 1.32.63.57 1.13 1.26 1.48 2.03.36.77.56 1.6.59 2.45.04.85-.1 1.69-.39 2.49-.29.79-.74 1.52-1.31 2.14-.58.63-1.27 1.13-2.04 1.48-.77.36-1.6.56-2.44.59-28.39 1.1-32.23 31.42-32.52 32.71a6.4 6.4 0 0 1-2.13 4.03 6.5 6.5 0 0 1-4.28 1.61m496.16-37.06q-.645.075-1.29 0c-.83-.17-1.62-.5-2.32-.97-.7-.48-1.3-1.08-1.77-1.79s-.79-1.5-.95-2.33-.16-1.68.01-2.51a9.67 9.67 0 0 0-1.74-8.35c-6.44-8.63-26.45-12.05-32.93-12.56a6.45 6.45 0 0 1-4.4-2.26c-1.12-1.3-1.66-3-1.53-4.7a6.5 6.5 0 0 1 2.25-4.41c1.31-1.11 3-1.66 4.71-1.52 3.22.25 31.06 2.86 42.21 17.69 2 2.62 3.4 5.65 4.1 8.87.71 3.23.69 6.57-.04 9.78a6.42 6.42 0 0 1-6.31 5.06m-341.68 481.92a6.45 6.45 0 0 1-6.45-6.45v-219.34c0-1.7.68-3.34 1.89-4.55a6.45 6.45 0 0 1 4.56-1.89c1.71 0 3.35.68 4.55 1.89a6.44 6.44 0 0 1 1.89 4.55v219.34c0 1.71-.68 3.35-1.89 4.56a6.4 6.4 0 0 1-4.55 1.89m218.82-13.89c-1.68 0-3.29-.65-4.49-1.82a6.47 6.47 0 0 1-1.96-4.43l-6.05-219.11c-.03-.85.12-1.69.42-2.48s.76-1.52 1.34-2.13c.58-.62 1.28-1.11 2.05-1.46.77-.34 1.61-.53 2.45-.56.85-.02 1.69.13 2.48.43s1.52.76 2.13 1.34c.62.58 1.11 1.28 1.46 2.05.34.77.53 1.61.56 2.45l6.02 219.11c.04 1.71-.59 3.36-1.76 4.6a6.48 6.48 0 0 1-4.49 2.01z"/><path fill="#0C106F" d="M1461.95 1839.54a229.26 229.26 0 0 1-137.72-46.53 6.47 6.47 0 0 1-2.49-4.27c-.23-1.69.22-3.41 1.25-4.77a6.43 6.43 0 0 1 4.27-2.49 6.38 6.38 0 0 1 4.77 1.25 215.38 215.38 0 0 0 135.14 43.85c50.65-1.6 99.18-20.74 137.3-54.13a6.44 6.44 0 0 1 4.67-1.6c1.7.1 3.3.88 4.43 2.16a6.5 6.5 0 0 1 1.61 4.67 6.5 6.5 0 0 1-2.17 4.44 232 232 0 0 1-145.52 57.38c-1.87.04-3.73.04-5.54.04"/><path fill="#0C106F" d="M1451.41 1929.95c-17.77.26-35.53-1.19-53.03-4.32-121.9-24.62-139.01-93.25-140.01-97.86-.74-3.22-7.6-35.67 31.26-62.22a80.6 80.6 0 0 1 37.88-14.38c13.65-1.49 27.45.53 40.09 5.88a6.42 6.42 0 0 1 3.54 3.67c.31.82.44 1.69.4 2.57s-.26 1.73-.64 2.52c-.39.79-.93 1.49-1.59 2.06s-1.44 1-2.27 1.27a6.43 6.43 0 0 1-5.08-.53 67.68 67.68 0 0 0-65.05 7.61c-32.22 21.94-26.29 47.43-26 48.33s15.49 65.15 130.04 88.29c46.08 9.31 141.52 2.38 190.98-20.11 43.38-19.75 68.83-41.27 75.69-63.96 4.16-13.72 1.58-27.8-7.86-43.01-30.71-49.43-71.18-29-72.88-28.1-1.52.8-3.29.97-4.92.47a6.46 6.46 0 0 1-4.29-8.07c.5-1.63 1.63-3 3.15-3.81.55-.26 52.71-27.16 89.9 32.71 11.34 18.27 14.46 36.31 9.24 53.52-7.99 26.42-35.79 50.62-82.71 71.98-37.09 17.05-96.76 25.49-145.84 25.49m-86.61-284.26s56.32 25.03 108.2 21.46c51.88-3.58 105.49-34.74 105.49-34.74l-9.82-57.06s-59.48 34.28-110.88 32.93c-51.39-1.36-84.94-18.79-84.94-18.79zm-41.86-335.05c-1.13.01-2.24-.28-3.22-.84a6.44 6.44 0 0 1-3.04-3.87c-.46-1.65-.24-3.4.59-4.89 2.32-4.16 4.83-13.21 4.83-26 0-15.47-3.86-20.69-5.63-20.69-1.78 0-5.61 5.22-5.61 20.69a66.6 66.6 0 0 0 3.58 23.2c.31.78.47 1.63.46 2.48s-.19 1.69-.52 2.47c-.34.78-.82 1.49-1.43 2.08s-1.33 1.06-2.12 1.37-1.64.46-2.49.45c-.85-.02-1.69-.2-2.47-.54-.77-.34-1.48-.83-2.07-1.45a6.5 6.5 0 0 1-1.35-2.13 78.3 78.3 0 0 1-4.48-27.93c0-30.32 12.89-33.58 18.5-33.58 5.6 0 18.52 3.22 18.52 33.58 0 12.89-2.41 25.07-6.44 32.22a6.6 6.6 0 0 1-2.34 2.46c-.99.59-2.12.91-3.27.92m255.85-23c-1.23 0-2.44-.36-3.48-1.03a6.45 6.45 0 0 1-2.38-2.74 76.4 76.4 0 0 1-5.32-30.07c0-30.32 12.89-33.57 18.5-33.57 5.6 0 18.52 3.22 18.52 33.57.1 7.96-.91 15.9-2.99 23.59a6.5 6.5 0 0 1-3.12 3.62c-1.46.76-3.16.93-4.75.48a6.5 6.5 0 0 1-3.78-2.93 6.44 6.44 0 0 1-.73-4.72 74.4 74.4 0 0 0 2.48-20.04c0-15.46-3.86-20.68-5.63-20.68-1.78 0-5.61 5.22-5.61 20.68a64.4 64.4 0 0 0 4.16 24.72 6.46 6.46 0 0 1 .16 4.93c-.3.8-.76 1.52-1.34 2.14s-1.27 1.12-2.05 1.47c-.83.37-1.73.57-2.64.58m-346.77 213.69c-14.66 0-51.37-5.31-71.44-55.32-6.9-16.8-15.35-32.91-25.23-48.14-14.31-23.11-25.62-41.38-23.49-80.56 2.71-51.14 55.68-64.96 83.29-65.12 1.71 0 3.35.68 4.56 1.89a6.44 6.44 0 0 1 1.89 4.55 6.45 6.45 0 0 1-6.45 6.45c-2.77 0-67.66 1.16-70.5 52.91-1.9 35.28 7.96 51.17 21.59 73.21a303.5 303.5 0 0 1 26.23 50.1c21.36 53.17 61.9 47.3 63.61 47.01a6.4 6.4 0 0 1 2.51.08c.83.18 1.61.53 2.3 1.02.69.5 1.28 1.12 1.73 1.84.45.71.76 1.51.9 2.35.14.83.12 1.69-.07 2.52-.19.82-.54 1.6-1.03 2.29-.49.7-1.11 1.28-1.83 1.73-.72.46-1.52.76-2.35.9-2.07.24-4.15.33-6.22.29"/><path fill="#0C106F" d="M1189.86 1424.13c-.56 0-1.13-.07-1.67-.23l-19.69-5.35a6.4 6.4 0 0 1-3.57-3.04 6.4 6.4 0 0 1-.56-4.66 6.425 6.425 0 0 1 7.35-4.73l5.87 1.57-39.28-79.23a6.45 6.45 0 0 1-.74-2.45c-.08-.86.02-1.73.28-2.55s.68-1.59 1.25-2.24c.56-.66 1.25-1.19 2.02-1.58a6.44 6.44 0 0 1 5.01-.3c.82.29 1.57.73 2.2 1.31.64.59 1.15 1.29 1.51 2.07l45.6 92.1c.49.98.72 2.07.67 3.16-.06 1.1-.39 2.16-.96 3.1-.58.93-1.39 1.7-2.35 2.23-.95.54-2.03.82-3.13.82zm502.03 77.2c-2.09.02-4.18-.11-6.25-.38-.86-.11-1.7-.4-2.44-.84a6.3 6.3 0 0 1-1.92-1.72c-.52-.7-.89-1.49-1.09-2.34a6.2 6.2 0 0 1-.09-2.58c.15-.85.46-1.67.93-2.4s1.09-1.36 1.8-1.85a6.3 6.3 0 0 1 2.39-.99c.85-.17 1.73-.16 2.58.02 1.67.26 42.24 6.12 63.57-47.04a303.3 303.3 0 0 1 26.26-50.11c13.63-22.04 23.46-37.93 21.59-73.21-2.77-51.91-67.67-52.91-70.5-52.91-1.71 0-3.35-.68-4.56-1.88a6.449 6.449 0 0 1 4.56-11.01c27.61 0 80.55 13.99 83.29 65.12 2.1 39.28-9.18 57.55-23.49 80.56a293.7 293.7 0 0 0-25.1 48.24c-20.17 50.01-56.87 55.32-71.53 55.32"/><path fill="#0C106F" d="M1734.1 1424.13c-1.1 0-2.18-.28-3.14-.82-.96-.53-1.76-1.3-2.34-2.23-.58-.94-.91-2-.96-3.1-.05-1.09.18-2.18.67-3.16l45.59-92.09c.76-1.54 2.1-2.71 3.72-3.25a6.44 6.44 0 0 1 4.93.33c1.54.76 2.71 2.1 3.25 3.72.55 1.62.43 3.4-.33 4.93l-39.25 79.24 5.84-1.58c.84-.29 1.73-.41 2.61-.34.89.07 1.75.33 2.54.75.78.42 1.47 1 2.02 1.7.55.69.95 1.5 1.17 2.36s.27 1.76.12 2.64c-.14.88-.46 1.72-.94 2.46-.48.75-1.11 1.39-1.85 1.88-.74.5-1.58.83-2.45.98l-19.66 5.35c-.5.14-1.02.22-1.54.23m-691.33 1167.08c-.85 0-1.69-.16-2.48-.48a6.5 6.5 0 0 1-2.84-2.31 6.5 6.5 0 0 1-1.12-3.49c-4.41-168.04-57.13-258.36-100.565-304.5-46.529-49.46-92.027-59.84-92.478-59.93a6.54 6.54 0 0 1-2.825-1.41 6.5 6.5 0 0 1-1.815-2.59 6.4 6.4 0 0 1-.376-3.12c.135-1.06.53-2.07 1.149-2.94 1.869-2.61 188.24-262.54 236.64-319.83 49.46-58.55 186.47-99.89 192.27-101.6 1.64-.49 3.41-.31 4.92.5 1.5.82 2.63 2.19 3.12 3.84.49 1.64.31 3.4-.5 4.91a6.45 6.45 0 0 1-3.84 3.12c-1.41.42-139.13 41.89-186.14 97.54-43.47 51.56-199.78 268.77-230.713 311.69 16.498 5.6 52.844 21.52 89.964 60.99 43.726 46.43 96.509 135.69 103.559 298.7l85.62-80.78a6.42 6.42 0 0 1 4.66-1.93c.87.01 1.73.2 2.52.54.8.35 1.51.86 2.11 1.49.59.63 1.05 1.38 1.35 2.19s.43 1.68.39 2.55c-.04.86-.26 1.71-.64 2.49s-.91 1.48-1.56 2.05l-95.96 90.51a6.45 6.45 0 0 1-4.42 1.8"/><path fill="#0C106F" d="M1138.73 2500.67c-1.66 0-3.26-.64-4.46-1.79a6.4 6.4 0 0 1-1.98-4.37l-11.96-264.86c-.08-1.71.53-3.38 1.68-4.64a6.47 6.47 0 0 1 4.48-2.1 6.46 6.46 0 0 1 6.73 6.16l11.95 264.86a6.4 6.4 0 0 1-1.68 4.65c-.57.62-1.26 1.13-2.02 1.49-.77.36-1.6.56-2.45.6zm-10.08-436.13c-1.61.01-3.16-.58-4.36-1.66a6.5 6.5 0 0 1-2.09-4.17c-8.6-89.71-61.03-136.72-61.54-137.17-.71-.53-1.3-1.21-1.73-1.98a6.48 6.48 0 0 1-.52-5.12c.27-.84.71-1.62 1.29-2.29.58-.66 1.3-1.2 2.1-1.58a6.46 6.46 0 0 1 7.33 1.3c2.32 2 56.81 50.56 65.9 145.65.16 1.7-.36 3.39-1.45 4.71a6.42 6.42 0 0 1-4.35 2.31zm-284.012 149.67 26.003 49.08 26.422-11.99z"/><path fill="#0C106F" d="M870.642 2269.77a6.6 6.6 0 0 1-3.332-.93 6.46 6.46 0 0 1-2.371-2.52l-26.003-49.11a6.43 6.43 0 0 1 1.427-7.89 6.46 6.46 0 0 1 3.939-1.6 6.46 6.46 0 0 1 4.075 1.21l52.425 37.12a6.46 6.46 0 0 1 2.127 2.57 6.44 6.44 0 0 1-.614 6.42 6.5 6.5 0 0 1-2.576 2.13l-26.455 12.02c-.829.37-1.73.57-2.642.58m-7.669-34.8 10.537 19.84 10.665-4.86zm275.757 576.38c-1.71 0-3.34-.68-4.55-1.88a6.45 6.45 0 0 1-1.89-4.56v-310.69c0-1.71.68-3.34 1.89-4.55a6.43 6.43 0 0 1 4.55-1.89c1.71 0 3.35.68 4.56 1.89a6.43 6.43 0 0 1 1.89 4.55v310.69c0 1.71-.68 3.35-1.89 4.56a6.48 6.48 0 0 1-4.56 1.88m797.76-221.39c-1.05 0-2.08-.26-3.01-.75a6.44 6.44 0 0 1-2.31-2.06l-76.14-112.29a6.454 6.454 0 0 1 1.71-8.96 6.45 6.45 0 0 1 4.83-1c1.68.32 3.16 1.29 4.13 2.71l67.66 99.89c34.67-153.09 93.16-253.17 136.78-310.72 39.06-51.56 72.73-78.46 85.68-87.84-20.39-28.39-120.8-164.59-231.03-254.17-16.11-13.14-52.68-35.44-97.66-55.93-70.67-32.03-163.43-69.99-164.34-70.38a6.43 6.43 0 0 1-3.3-3.48c-.61-1.55-.6-3.27.03-4.81a6.4 6.4 0 0 1 3.34-3.45c1.52-.67 3.23-.74 4.8-.18.93.39 93.93 38.44 164.81 70.54 46.05 20.88 83.78 44.01 100.47 57.71 124.41 101.08 236.13 260.45 237.22 262.06.5.71.84 1.51 1.02 2.36.18.84.18 1.72.01 2.57s-.51 1.67-1 2.39-1.13 1.33-1.86 1.8c-.39.25-40.67 26.16-88.36 89.25-44.05 58.23-103.59 161.11-137.17 319.65a6.45 6.45 0 0 1-1.78 3.25c-.9.89-2.04 1.49-3.28 1.74z"/><path fill="#0C106F" d="M1837.76 2006.77c-.7 0-1.4-.11-2.07-.32-.8-.28-1.54-.7-2.18-1.26a6.7 6.7 0 0 1-1.53-2c-.37-.76-.59-1.59-.65-2.43-.05-.85.06-1.7.34-2.5 17.43-51.26 79.55-93.15 82.19-94.89.7-.53 1.51-.91 2.36-1.11.85-.21 1.73-.24 2.6-.1.86.15 1.69.47 2.42.95.74.48 1.37 1.1 1.86 1.83.48.72.82 1.54.98 2.41.15.86.14 1.74-.06 2.6-.19.85-.56 1.66-1.08 2.37-.51.7-1.17 1.3-1.92 1.75-.61.41-61.22 41.24-77.14 88.35a6.5 6.5 0 0 1-2.36 3.16c-1.1.78-2.42 1.19-3.76 1.19m45.43 809.68c-1.46-.01-2.88-.5-4.02-1.42a6.4 6.4 0 0 1-2.26-3.61c-.39-1.77-9.67-44.76-21.66-177.22-12.89-144.49-18.4-424.63-18.46-427.43-.03-1.71.61-3.36 1.8-4.59a6.4 6.4 0 0 1 4.52-1.98 6.434 6.434 0 0 1 6.57 6.31c0 2.84 5.44 282.49 18.4 426.53 11.82 131.27 21.33 175.12 21.39 175.54.37 1.66.06 3.4-.85 4.84a6.4 6.4 0 0 1-4.01 2.83c-.46.13-.94.19-1.42.2m53.3-232.94 106.59-129.43-51.39-49.5s-52.33 128.5-55.2 178.93"/><path fill="#0C106F" d="M1936.48 2589.96c-.78-.05-1.56-.24-2.28-.55a6.5 6.5 0 0 1-3.11-2.55 6.53 6.53 0 0 1-.99-3.9c2.9-50.91 53.52-175.67 55.68-180.96a6.45 6.45 0 0 1 1.84-2.51c.8-.68 1.76-1.15 2.79-1.37s2.1-.18 3.12.11c1.01.29 1.93.82 2.69 1.55l51.4 49.49a6.5 6.5 0 0 1 1.95 4.28 6.47 6.47 0 0 1-1.47 4.46l-106.56 129.4c-.59.78-1.36 1.42-2.23 1.86-.88.44-1.84.67-2.83.69m57.65-174c-9.96 25.23-38.15 98.72-47.92 145.67l88.1-106.98zm165.04 16.04c-1.65 0-3.25-.63-4.45-1.77a6.43 6.43 0 0 1-1.99-4.35c-.16-3.03-3.71-74.98 9.89-112.78 4.7-13.11 26.94-34.22 60.54-66.18 69.38-65.93 174.2-165.56 208.16-275.73a6.434 6.434 0 0 1 8-4.06 6.44 6.44 0 0 1 3.75 3.06c.8 1.47 1 3.19.56 4.81-34.93 113.39-141.23 214.4-211.57 281.26-28.78 27.36-53.62 50.95-57.29 61.23-12.73 35.44-9.22 107.13-9.15 107.84.04.85-.08 1.7-.36 2.5-.28.81-.72 1.55-1.29 2.18s-1.26 1.14-2.03 1.51c-.76.36-1.6.57-2.45.61z"/><path fill="#0C106F" d="M2193.42 2281.65c-.89 0-1.77-.19-2.58-.55-.82-.36-1.55-.88-2.15-1.54l-66.61-72.31c-.6-.61-1.07-1.34-1.38-2.15a6.47 6.47 0 0 1 .13-5.01c.36-.78.87-1.49 1.5-2.07.64-.59 1.38-1.04 2.19-1.33s1.67-.42 2.53-.37 1.7.27 2.48.64c.77.38 1.46.91 2.03 1.56l66.6 72.31c.58.62 1.03 1.35 1.32 2.14.29.8.43 1.64.4 2.49-.04.85-.24 1.68-.59 2.45-.36.77-.86 1.46-1.48 2.04a6.43 6.43 0 0 1-4.39 1.7"/><path fill="#0C106F" d="m2164.87 2170.52-17.14 53.3-20.91-20.95z"/><path fill="#0C106F" d="M2147.76 2230.26c-.85 0-1.69-.17-2.47-.49-.79-.33-1.5-.81-2.1-1.41l-20.95-20.91a6.5 6.5 0 0 1-1.44-2.22c-.32-.83-.46-1.72-.42-2.62.03-.88.25-1.75.64-2.55s.94-1.51 1.61-2.09l38.09-32.22c1.06-.9 2.4-1.44 3.79-1.52 1.4-.08 2.78.3 3.95 1.07a6.53 6.53 0 0 1 2.51 3.23c.46 1.32.48 2.75.06 4.09l-17.14 53.29a6.4 6.4 0 0 1-1.75 2.74c-.81.75-1.79 1.29-2.86 1.55-.5.08-1.01.1-1.52.06m-11.43-27 8.5 8.54 6.99-21.72zm308.43-177.93c-.59-.01-1.18-.09-1.74-.26a6.48 6.48 0 0 1-3.87-3.02 6.42 6.42 0 0 1-.61-4.87c.29-1.1 6.64-25.98-14.05-54.78-17.98-25.1-30.38-99.89-29-147.74a603 603 0 0 0-7.93-83.13c-4.22-27.81-6.44-43.12 5.71-50.69a38.25 38.25 0 0 1 16.57-5.65c5.89-.57 11.83.22 17.36 2.33 10.99 4.16 25.77 15.21 34.8 44.24 11.82 38.67 25.77 47.89 26.06 47.98 1.43.86 2.46 2.23 2.9 3.83.43 1.6.23 3.31-.56 4.77a6.48 6.48 0 0 1-3.7 3.06c-1.58.5-3.3.38-4.79-.35-1.9-1.03-18.75-11.28-32.22-55.52-5.74-18.75-15.34-31.51-27.04-35.96-3.66-1.42-7.6-1.98-11.52-1.62-3.91.36-7.69 1.62-11.03 3.69-5.03 3.22-2.9 16.88.26 37.76 4.68 28.15 7.38 56.6 8.05 85.13-1.42 50.17 11.76 119.45 26.62 140.17 24.49 34.18 16.33 64.44 16.11 65.79a6.43 6.43 0 0 1-2.35 3.53 6.45 6.45 0 0 1-4.03 1.31m-1401.73 559.44s-71.304-44.21-82.84-99.08l55.42-71.7s47.66 136.11 27.42 170.78"/><path fill="#0C106F" d="M1043.03 2591.21c-1.2 0-2.37-.33-3.38-.96-3.03-1.87-73.793-46.31-85.779-103.11a6.44 6.44 0 0 1 1.192-5.29l55.457-71.69c.71-.92 1.65-1.63 2.73-2.06 1.08-.42 2.25-.55 3.39-.37 1.15.19 2.22.68 3.11 1.42.89.75 1.56 1.72 1.95 2.81 4.96 14.24 48.01 139.97 26.9 176.16-.43.74-1.01 1.39-1.71 1.91-.69.51-1.48.88-2.31 1.09-.51.09-1.03.12-1.55.09m-75.884-103.98c10.311 40.86 55.904 75.89 72.884 87.78 7.83-30.45-13.56-107.56-26.68-147.55zm1269.104 141.84c-17.88 0-34.32-11.37-52.91-24.2l-1.19-.83c-40.08-27.52-188.89-188.21-195.2-195.08a6.43 6.43 0 0 1-1.71-4.63 6.46 6.46 0 0 1 6.7-6.2c1.71.07 3.32.81 4.48 2.07 1.55 1.68 154.12 166.33 193.04 193.33l1.2.84c20.23 13.95 36.18 25 52.52 21.07 16.33-3.93 33.61-23.42 53.07-59.61 46.98-87.42 273.72-534.88 276.01-539.43.16-.33.36-.64.58-.93.68-.94 69.22-93.09 79.46-125.67a6.66 6.66 0 0 1 1.9-2.93c.42-.35 41.7-36.6 79.66-75.82 67.66-69.82 64.44-86 63.02-88.61-10.86-9.67-21.75-1.48-53.49 24.78-9.66 7.89-20.33 16.82-33.12 26.68-12.18 9.38-26.29 3.22-32.03-1.55a6.48 6.48 0 0 1-2.23-4.29c-.16-1.67.34-3.33 1.39-4.64a6.45 6.45 0 0 1 8.9-1.12c.35.29 8.95 6.89 16.11 1.38 12.63-9.66 23.33-18.56 32.77-26.39 31.87-26.39 51.13-42.3 70.89-23.87.25.23.47.49.67.77 8.09 10.31 8.15 31.68-63.76 105.88-34.51 35.61-71.67 68.8-79.05 75.34-12.21 35.06-74.75 119.64-80.55 127.4-8.77 17.28-229.55 452.95-275.92 539.21-21.59 40.18-41.11 61.22-61.22 66.05-3.28.73-6.63 1.06-9.99 1"/><path fill="#0C106F" d="M2673.53 1787.08c-1.13 0-2.24-.3-3.22-.87a6.48 6.48 0 0 1-3.02-3.89c-.45-1.64-.23-3.39.6-4.88.42-.74 42.83-75.14 77.56-124.73 18.14-25.78 16.98-41.89 11.76-46.24-3.7-3.22-12.08-2.25-21.65 7.16-10.31 10.18-27.9 33.89-45.11 56.87-38.06 51.3-50.49 66.34-59.52 67.08-1.17.12-2.35-.02-3.46-.4a8.3 8.3 0 0 1-2.98-1.82c-7.51-7.15-5.32-36.96 10.54-145 2.03-13.73 3.77-25.58 4.99-34.73 2.13-15.95-1.22-26.85-9.02-29.2-6.74-2.03-15.37 2.32-18.85 9.51-3.48 7.18-11.73 39.95-19.72 71.56-26.94 106.63-31.19 115.62-40.96 114.17-5.86-.84-11.95-5.51-22.55-52.46-5.41-24.52-10.96-56.23-14.37-82.78-2.9-22.2-10.89-30.68-16.89-31.16-5.99-.48-11.08 5-13.53 13.24-3.22 10.7 1 52.72 4.74 89.78 5.38 53.74 8.34 87.25 3.83 99.34a23.5 23.5 0 0 1-6.13 9.32 23.5 23.5 0 0 1-9.75 5.43c-1.64.5-3.41.33-4.91-.48a6.43 6.43 0 0 1-3.13-3.82c-.5-1.63-.32-3.4.48-4.91a6.46 6.46 0 0 1 3.82-3.13c1.73-.42 3.33-1.27 4.64-2.47 1.32-1.2 2.32-2.71 2.9-4.39 3.77-10.18-.87-56.42-4.58-93.44-5.09-50.75-7.92-82.49-4.28-94.77 4.28-14.34 15.11-23.33 26.93-22.36 7.03.55 23.88 5.83 28.62 42.34 6.44 49.01 17.49 101.98 24.68 119.48 6.96-17.43 19.33-66.09 27.78-99.89 10.27-40.63 16.75-65.96 20.62-74.11 6.15-12.89 21.49-20.08 34.15-16.27 6.93 2.06 22.56 10.44 18.08 43.24-1.22 9.25-2.96 21.14-4.99 34.89-5.77 39.22-16.12 108.88-14.63 129.67 9.99-9.28 31.03-37.67 46.98-59.16 18.11-24.43 35.22-47.5 46.27-58.39 15.4-15.18 30.67-14.85 38.99-7.83 10.15 8.57 13.72 30.32-9.67 63.48-34.38 49.1-76.5 122.99-76.91 123.73-.52.93-1.26 1.71-2.15 2.29-.9.57-1.92.91-2.98 1m-131.14 71.76c-1.38 0-2.72-.45-3.82-1.26a6.4 6.4 0 0 1-2.33-3.29c-6.87-22.23-42.96-67.37-43.31-67.82-.6-.65-1.06-1.42-1.36-2.25-.29-.84-.4-1.72-.34-2.61.07-.88.31-1.74.72-2.52s.98-1.47 1.67-2.03c.69-.55 1.48-.96 2.34-1.19.85-.23 1.74-.29 2.62-.16.87.12 1.71.43 2.46.89.76.47 1.41 1.08 1.91 1.81 1.58 1.93 38.02 47.5 45.59 72.08.51 1.63.34 3.4-.46 4.91a6.44 6.44 0 0 1-3.79 3.15c-.62.18-1.26.28-1.9.29M841.257 2432h-.355a6.3 6.3 0 0 1-2.441-.62 6.5 6.5 0 0 1-2.015-1.51 6.44 6.44 0 0 1-1.634-4.67c0-.7 3.577-72.4-9.151-107.84-3.673-10.28-28.516-33.87-57.291-61.22-70.341-66.87-176.641-167.88-211.57-281.27a6.45 6.45 0 0 1 .351-5.01c.391-.77.933-1.46 1.593-2.01.66-.56 1.425-.98 2.25-1.23a6.5 6.5 0 0 1 2.55-.25c.859.08 1.691.34 2.448.76.757.41 1.423.97 1.958 1.65.536.68.93 1.45 1.159 2.29 33.93 110.16 138.78 209.79 208.122 275.72 33.64 31.97 55.841 53.07 60.546 66.19 13.63 37.92 10.053 109.87 9.892 112.77a6.43 6.43 0 0 1-1.943 4.42 6.4 6.4 0 0 1-4.469 1.83"/><path fill="#0C106F" d="M555.642 2025.3a6.46 6.46 0 0 1-3.875-1.31 6.4 6.4 0 0 1-2.312-3.37c-.355-1.29-8.507-31.61 16.111-65.79 14.854-20.72 28.033-90 26.615-139.88.68-28.63 3.372-57.17 8.056-85.42 3.222-20.88 5.284-34.67.258-37.77a25.36 25.36 0 0 0-11.035-3.69c-3.915-.36-7.859.2-11.521 1.63-11.729 4.45-21.331 17.21-27.034 35.96-13.501 44.24-30.353 54.49-32.222 55.52a6.44 6.44 0 0 1-4.814.45 6.48 6.48 0 0 1-3.768-3.03 6.45 6.45 0 0 1-.603-4.8 6.4 6.4 0 0 1 2.902-3.86c.483-.33 14.403-9.51 26.164-48.05 8.861-29 23.844-40.08 34.832-44.24a38.25 38.25 0 0 1 17.245-2.34 38.3 38.3 0 0 1 16.491 5.56c12.277 7.58 9.957 22.88 5.704 50.69a599 599 0 0 0-7.895 83.42c1.354 47.4-11.02 122.45-28.999 147.45-20.687 29-14.307 53.78-14.049 54.78.257.95.291 1.95.099 2.92a6.4 6.4 0 0 1-1.206 2.67 6.4 6.4 0 0 1-2.261 1.86c-.887.44-1.862.67-2.851.67z"/><path fill="#0C106F" d="M770.011 2631.68c-3.842.01-7.672-.44-11.406-1.35-22.717-5.48-43.597-27.23-65.798-68.5-46.368-86.26-267.153-522-275.886-539.21-5.767-7.76-68.343-92.35-80.555-127.4-7.379-6.45-44.531-39.73-79.041-75.34-71.887-74.11-71.855-95.57-63.767-105.88l.676-.78c19.881-18.43 39.118-2.51 70.889 23.88 9.441 7.83 20.139 16.66 32.77 26.39 7.25 5.61 16.111-1.29 16.111-1.35a6.6 6.6 0 0 1 2.249-1.36c.834-.29 1.72-.41 2.602-.34a6.42 6.42 0 0 1 4.55 2.39 6.4 6.4 0 0 1 1.193 2.34 6.43 6.43 0 0 1-.733 5.08 6.4 6.4 0 0 1-1.806 1.91c-5.735 4.64-19.816 10.92-31.996 1.55-12.889-9.86-23.619-18.79-33.124-26.68-31.771-26.27-42.63-34.35-53.521-24.78-1.418 2.61-4.64 18.78 63.026 88.61 37.99 39.21 79.234 75.46 79.653 75.82a6.4 6.4 0 0 1 1.901 2.93c10.247 32.67 78.783 124.83 79.492 125.66.224.3.418.61.58.94 2.288 4.51 229.003 452.01 276.015 539.43 20.042 37.28 38.666 57.58 57.42 62.06 16.787 4.06 33.156-4.19 55.712-19.79 38.924-26.87 182.473-182.47 183.923-184.05.57-.65 1.26-1.18 2.03-1.55.77-.38 1.62-.6 2.48-.65.86-.04 1.72.08 2.53.37s1.55.74 2.19 1.33c.63.58 1.14 1.29 1.5 2.07.35.79.55 1.63.57 2.49.02.87-.13 1.72-.44 2.52a6.3 6.3 0 0 1-1.39 2.15c-5.93 6.45-145.962 158.25-186.047 185.93-17.013 11.92-35.186 23.16-54.552 23.16"/><path fill="#0C106F" d="M326.892 1787.08a6.45 6.45 0 0 1-3.236-.86 6.5 6.5 0 0 1-2.37-2.36c-.451-.75-42.533-74.63-76.914-123.74-23.233-33.15-19.656-54.78-9.667-63.48 8.313-7.02 23.619-7.34 39.021 7.83 11.02 10.9 28.13 33.97 46.239 58.39 16.111 21.53 37.023 49.88 46.979 59.16 1.386-20.78-8.861-90.45-14.596-129.66-2.03-13.76-3.77-25.78-5.027-34.9-4.414-32.8 11.181-41.18 18.077-43.24 12.695-3.8 28.001 3.48 34.187 16.27 3.867 8.03 10.344 33.35 20.59 74.11 8.539 33.84 20.848 82.49 27.776 99.89 7.185-17.49 18.334-70.47 24.682-119.48 4.737-36.5 21.589-41.89 28.613-42.34 11.761-.93 22.556 8.03 26.938 22.36 3.673 12.28.838 44.02-4.253 94.77-3.738 37.18-8.378 83.42-4.608 93.44.579 1.7 1.577 3.22 2.901 4.42a10.6 10.6 0 0 0 4.671 2.48 6.454 6.454 0 0 1 1.145 11.87c-1.51.8-3.278.97-4.915.47-3.637-1-6.98-2.87-9.745-5.44a23.5 23.5 0 0 1-6.14-9.32c-4.479-12.08-1.547-45.56 3.866-99.34 3.706-37.05 7.927-79.07 4.737-89.77-2.481-8.25-8.056-13.69-13.566-13.24s-13.984 8.96-16.852 31.16c-3.448 26.55-8.958 58.25-14.403 82.78-10.408 46.94-16.53 51.55-22.362 52.45-9.667 1.45-14.049-7.54-40.987-114.16-7.959-31.61-16.111-64.28-19.72-71.56-3.609-7.29-12.115-11.54-18.85-9.51-7.765 2.35-11.148 13.24-8.99 29.19 1.225 9.15 2.965 21.01 4.963 34.74 15.885 107.94 18.044 137.75 10.568 145a8.15 8.15 0 0 1-2.979 1.81 8 8 0 0 1-3.465.41c-9.054-.74-21.492-15.79-59.546-67.09-17.014-22.94-34.639-46.69-45.111-56.87-9.667-9.41-17.916-10.31-21.654-7.15-5.187 4.38-6.444 20.33 11.761 46.24 34.736 49.59 77.14 123.99 77.559 124.73a6.44 6.44 0 0 1 .601 4.88 6.43 6.43 0 0 1-3.018 3.88c-.892.49-1.886.75-2.9.78m131.143 71.76c-.644 0-1.285-.1-1.901-.29a6.45 6.45 0 0 1-4.285-8.06c7.572-24.58 44.047-70.15 45.594-72.08a6.4 6.4 0 0 1 1.917-1.7 6.2 6.2 0 0 1 2.429-.82 6.3 6.3 0 0 1 2.557.19c.83.23 1.606.63 2.279 1.17a6.44 6.44 0 0 1 2.115 6.97c-.26.83-.683 1.59-1.244 2.25-.354.45-36.475 45.59-43.306 67.82a6.45 6.45 0 0 1-2.33 3.29 6.5 6.5 0 0 1-3.825 1.26m373.685 462.77a6.5 6.5 0 0 1-3.65-1.12 6.5 6.5 0 0 1-2.374-2.99 6.45 6.45 0 0 1 1.674-7.1l69.019-62.93a6.6 6.6 0 0 1 2.181-1.3 6.5 6.5 0 0 1 2.511-.36c.853.04 1.688.25 2.459.62s1.461.89 2.033 1.52a6.6 6.6 0 0 1 1.297 2.18 6.52 6.52 0 0 1-.262 4.97 6.5 6.5 0 0 1-1.519 2.03l-69.019 62.8a6.43 6.43 0 0 1-4.35 1.68m511.4-999.56a6.55 6.55 0 0 1-2.55-.54c-.8-.34-1.53-.85-2.13-1.49-11.11-11.8-40.85-15.05-51.39-15.31-1.71 0-3.35-.68-4.56-1.88a6.44 6.44 0 0 1-1.88-4.56 6.44 6.44 0 0 1 6.44-6.45h.16c1.77 0 43.37 1.23 60.45 19.34.86.91 1.44 2.06 1.65 3.3a6.44 6.44 0 0 1-2.81 6.5 6.47 6.47 0 0 1-3.54 1.06zm218.17-27.2c-1.23 0-2.44-.35-3.48-1.02a6.47 6.47 0 0 1-2.96-5.2c-.02-.85.12-1.69.42-2.49a6.5 6.5 0 0 1 3.38-3.6c1.71-.77 42.11-18.94 64.64-17.91.84.04 1.67.24 2.44.6s1.46.87 2.03 1.49c.57.63 1.01 1.36 1.3 2.15a6.5 6.5 0 0 1-.22 4.94c-.36.76-.87 1.45-1.49 2.02-.63.58-1.36 1.02-2.15 1.31-.8.29-1.65.42-2.49.38-16.11-.74-47.88 11.85-58.74 16.78-.85.38-1.76.56-2.68.55m-86.94 186.12c-74.66 0-84.77-30.52-95.41-62.64-2.19-6.45-4.41-13.31-7.28-19.79-.5-1.13-.66-2.38-.47-3.6s.73-2.36 1.55-3.29c.82-.92 1.89-1.59 3.08-1.92a6.44 6.44 0 0 1 3.64.05c1.32.39 101.34 29.19 192.04-34.41.8-.56 1.7-.93 2.66-1.09.95-.15 1.93-.1 2.86.18.93.27 1.78.75 2.5 1.4.72.64 1.28 1.45 1.65 2.34.81 1.97 19.33 48.53-2.38 84.13-13.15 21.53-37.83 34.03-73.41 37.16-11.44 1.12-21.71 1.48-31.03 1.48m-86.35-76.05c1.09 3.23 2.16 6.29 3.22 9.35 11.21 33.83 20.07 60.54 113.1 52.39 31.22-2.74 52.59-13.18 63.51-30.96 13.66-22.33 7.89-51.37 4-64.96-74.76 48.55-153.93 40.02-183.83 34.31zm115.46 114.36c-13.2.02-26.33-1.73-39.06-5.19a6.43 6.43 0 0 1-3.83-3.12 6.5 6.5 0 0 1-.5-4.92 6.43 6.43 0 0 1 3.12-3.83c1.51-.81 3.28-.99 4.92-.5.55.19 55.03 16.11 90.51-12.34a6.43 6.43 0 0 1 4.68-1.24c1.66.21 3.17 1.05 4.22 2.36a6.48 6.48 0 0 1 1.39 4.64c-.16 1.66-.96 3.2-2.23 4.29-19.6 15.69-43.47 19.85-63.22 19.85"/><path fill="#0C106F" d="M1387.97 1418.62s93.8 31.8 198.88-30.87c0 0 .96 29-7.71 42.44 0 0-80.97-19.34-158.11 25.06 3.22 1.71-24.2-17.14-33.06-36.63"/><path fill="#0C106F" d="M1421.19 1461.63a6.6 6.6 0 0 1-3.22-.8c-.77-.4-1.44-.96-1.97-1.64l-.64-.49c-6.45-5.12-25.78-20.75-33.29-37.5-.52-1.15-.7-2.42-.51-3.67.19-1.24.74-2.41 1.58-3.34.84-.94 1.94-1.61 3.16-1.93 1.22-.31 2.51-.27 3.7.14.9.32 92.44 30.03 193.53-30.26.98-.56 2.09-.86 3.22-.86s2.24.3 3.22.86c.96.56 1.76 1.35 2.33 2.3.56.96.87 2.04.89 3.15 0 3.22.74 31.35-8.73 46.11a6.46 6.46 0 0 1-3.02 2.49c-1.24.49-2.61.59-3.91.28-.77-.16-78.43-17.85-151.86 23.52a6.63 6.63 0 0 1-4.48 1.64m-18.66-32.73c5.89 6.72 12.36 12.91 19.34 18.49a217.4 217.4 0 0 1 31.51-14.11c-17.06.33-34.1-1.14-50.85-4.38m132.44-9.44c13.64-.03 27.26 1.14 40.69 3.51 2.7-7.7 4.22-15.76 4.51-23.91a287.7 287.7 0 0 1-46.78 20.46zm-407.49 848.4-19.17 254.59 30.42-28.23z"/><path fill="#0C106F" d="M1108.31 2528.89c-.97.01-1.92-.2-2.8-.61a6.4 6.4 0 0 1-2.82-2.65 6.4 6.4 0 0 1-.79-3.79l19.17-254.56c.12-1.62.86-3.14 2.05-4.24a6.473 6.473 0 0 1 8.84.05 6.44 6.44 0 0 1 2 4.35l11.25 226.36c.04.95-.12 1.89-.47 2.76-.36.88-.9 1.66-1.6 2.3l-30.41 28.23a6.45 6.45 0 0 1-4.42 1.8m17.85-157.69-10.18 135.33 16.11-15.01zm716.63-128.41 40.5 254.5-29.32-34.71z"/><path fill="#0C106F" d="M1883.29 2503.73c-.94 0-1.87-.19-2.72-.58s-1.61-.96-2.21-1.68l-29.33-34.7a6.43 6.43 0 0 1-1.51-3.83l-11.15-219.82c-.18-1.71.34-3.42 1.42-4.75a6.45 6.45 0 0 1 4.36-2.36c1.71-.17 3.42.34 4.75 1.42a6.5 6.5 0 0 1 2.36 4.37l40.47 254.55c.22 1.39-.02 2.81-.68 4.05a6.46 6.46 0 0 1-2.99 2.81c-.87.39-1.82.57-2.77.52m-23.01-43.63 12.89 15.37-17.98-112.78zM1496.43 806.913a6.45 6.45 0 0 1-3.45-.999c-.87-.58-87.96-55.518-142.58-37.571a6.45 6.45 0 0 1-8.14-4.108 6.47 6.47 0 0 1 .37-4.919 6.46 6.46 0 0 1 3.74-3.217c60.42-19.881 149.77 36.54 153.54 38.924a6.43 6.43 0 0 1 2.58 3.17 6.425 6.425 0 0 1-2.18 7.443 6.43 6.43 0 0 1-3.88 1.277"/><path fill="#0C106F" d="M1135.48 1144.6c-1.26 0-2.48-.37-3.53-1.05a6.5 6.5 0 0 1-2.37-2.82c-1.61-3.67-38.67-91.7 31.77-226.807 70.89-135.913 248.72-131.595 250.46-131.531 1.71.059 3.32.79 4.48 2.035a6.44 6.44 0 0 1 1.74 4.603 6.3 6.3 0 0 1-.56 2.452 6.44 6.44 0 0 1-6.08 3.799c-1.74 0-171.45-4.06-238.6 124.603-67.41 129.206-31.77 214.856-31.42 215.696.69 1.55.74 3.31.13 4.9-.6 1.59-1.8 2.87-3.35 3.57-.84.37-1.75.55-2.67.55m593.85 98.15c-1.71.16-3.41-.36-4.74-1.46a6.5 6.5 0 0 1-2.32-4.37c-.16-1.71.36-3.42 1.46-4.74a6.47 6.47 0 0 1 4.37-2.32c39.96-7.7 52.49-123.6 50.5-166.36 0-3.22-.26-6.96-.39-10.8-1.16-37.25-2.9-93.441-50.65-155.243-51.27-66.248-136.79-62.414-137.62-62.382a6.44 6.44 0 0 1-4.66-1.637 6.42 6.42 0 0 1-2.14-4.453 6.43 6.43 0 0 1 1.63-4.66 6.48 6.48 0 0 1 4.46-2.139c3.8-.193 93.02-4.35 148.51 67.377 50.3 64.992 52.23 126.147 53.36 162.687 0 3.77.22 7.32.39 10.6 1.19 25.78-4.93 168.85-60.94 179.64-.39.13-.8.22-1.22.26m-187.99-425.848a6 6 0 0 1-1.67-.226c-15.02-4.092-17.4-22.555-20.66-48.139a368 368 0 0 0-10.47-56.131c-13.66-47.786-103.62-61.802-104.53-61.931a6.5 6.5 0 0 1-2.49-.759 6.5 6.5 0 0 1-1.98-1.682 6.4 6.4 0 0 1-1.16-2.33 6.5 6.5 0 0 1 .75-5.041 6.44 6.44 0 0 1 4.18-2.917 6.5 6.5 0 0 1 2.61.001c4.02.58 99.08 15.37 115.03 71.114a387 387 0 0 1 10.86 58c2.51 19.849 4.54 35.444 11.24 37.345a6.43 6.43 0 0 1 3.68 2.657 6.4 6.4 0 0 1 1.02 4.424 6.44 6.44 0 0 1-6.41 5.583z"/><path fill="#0C106F" d="M1499.78 760.352a6.43 6.43 0 0 1-3.72-1.174 6.5 6.5 0 0 1-2.37-3.111c-19.52-54.778-78.91-79.138-79.49-79.363a6.456 6.456 0 0 1-3.58-8.378 6.45 6.45 0 0 1 8.38-3.577c2.64 1.064 65.32 26.713 86.84 87a6.47 6.47 0 0 1-.24 4.933 6.44 6.44 0 0 1-3.66 3.316c-.69.24-1.42.36-2.16.354m53.23 49.88a6.42 6.42 0 0 1-4.41-1.74 6.42 6.42 0 0 1-2.04-4.477 6.45 6.45 0 0 1 1.72-4.61c1.99-2.126 49.26-51.909 124.63-50.298.85.019 1.68.204 2.46.546.77.341 1.47.832 2.06 1.444a6.6 6.6 0 0 1 1.35 2.122c.3.789.45 1.631.43 2.477a6.3 6.3 0 0 1-.55 2.455 6.42 6.42 0 0 1-3.56 3.409c-.79.307-1.63.455-2.48.435-69.24-1.514-114.45 45.724-114.9 46.207a6.6 6.6 0 0 1-2.14 1.503c-.81.349-1.69.528-2.57.527m-187.57-212.15c-12.82.029-25.63-.67-38.37-2.095-51.27-5.961-83.52-24.198-90.74-51.555-14.63-54.778 78.69-125.666 212.44-161.368s249.95-20.204 264.54 34.574c14.63 54.778-78.71 125.666-212.44 161.368a536.5 536.5 0 0 1-135.43 19.076m219.11-221.012a525.6 525.6 0 0 0-132.43 18.593c-122.44 32.641-215.63 99.308-203.32 145.579 5.7 21.428 34.8 36.733 79.81 41.889 47.69 5.51 107.69-.419 168.98-16.756 122.44-32.608 215.63-99.276 203.32-145.579-7.64-28.356-53.49-43.693-116.39-43.693z"/><path fill="#0C106F" d="M1666.95 508.343a6.45 6.45 0 0 1-3.37-.963 6.4 6.4 0 0 1-2.37-2.582 6.4 6.4 0 0 1-.39-4.914 6.42 6.42 0 0 1 3.19-3.753c68.06-34.575 243.41-139.071 237.64-206.447-1.84-21.621-22.97-38.667-62.77-51.137-121.8-37.668-365.17 149.253-367.62 151.154a6.5 6.5 0 0 1-2.27 1.287c-.84.269-1.72.364-2.6.279a6.5 6.5 0 0 1-4.48-2.476 6.6 6.6 0 0 1-1.14-2.348 6.4 6.4 0 0 1-.12-2.609c.14-.869.46-1.7.93-2.442a6.4 6.4 0 0 1 1.82-1.873c10.18-7.895 251.14-192.882 379.28-153.281 45.34 14.178 69.51 34.993 71.83 62.511 7.67 89.771-234.35 213.794-244.63 219.11-.93.388-1.93.553-2.93.484"/><path fill="#0C106F" d="M1241.94 567.374a6.44 6.44 0 0 1-5.64-3.222c-18.72-33.866-75.66-136.944-44.53-228.777 17.88-52.651 61.86-94.637 130.75-124.7 107.75-47.076 184.25-25.391 229.46 1.064a213.7 213.7 0 0 1 73.14 69.825 6.4 6.4 0 0 1 .64 4.897 6.452 6.452 0 0 1-11.82 1.547 204.86 204.86 0 0 0-68.96-65.411c-61.93-35.992-135.04-36.024-217.3 0-65.45 28.581-107.04 67.957-123.7 117.031-19.72 58-5.45 129.501 43.59 218.273.57.984.87 2.1.87 3.237a6.55 6.55 0 0 1-.88 3.232 6.4 6.4 0 0 1-2.38 2.356c-.99.561-2.11.852-3.24.841z"/><path fill="#0C106F" d="M1404.95 586.708s-97.89-16.401-88.16-67.345c14.14-74.11 119.77-123.12 119.77-123.12a572.3 572.3 0 0 0-100.82 37.925c-21.43 10.666-102.86 61.448-93.19 108.782 4.83 23.78 30.87 36.991 39.31 41.276 41.31 20.945 117.84 5.124 123.09 2.482"/><path fill="#0C106F" d="M1339.47 601.304c-21.3 0-43.6-2.771-60.54-11.374-9.19-4.673-37.22-18.883-42.7-45.724-11.99-58.708 95.51-115.29 96.67-115.838a572.7 572.7 0 0 1 102.11-38.377 6.46 6.46 0 0 1 4.62.558 6.47 6.47 0 0 1 3.04 3.52 6.48 6.48 0 0 1-.12 4.648 6.47 6.47 0 0 1-3.22 3.358c-1.03.483-102.79 48.558-116 118.448-.8 3.895-.78 7.916.07 11.801s2.5 7.549 4.86 10.755c18.85 27.066 77.33 37.216 77.98 37.313a6.446 6.446 0 0 1 1.83 12.115c-4.32 1.998-35.22 8.797-68.6 8.797m45.11-181.346c-14.34 5.445-30.22 12.115-45.91 19.945-19.92 9.925-98.41 59.257-89.74 101.726 4.22 20.751 28.06 32.834 35.89 36.829 25.07 12.696 64.7 11.053 91.06 7.573-20.1-6.445-45.79-17.594-58.35-35.638a41.4 41.4 0 0 1-6.87-15.38 41.4 41.4 0 0 1-.16-16.842c7.99-42.082 43.21-75.915 74.02-98.181z"/><path fill="#FD603D" d="M2325.24 1419.97c-1.22.01-2.42-.35-3.44-1.03-109.4-69.89-201.55-156.54-273.89-257.52a982.5 982.5 0 0 1-134.98-267.765c-53.91-165.01-49.17-294.542-49.11-295.831a6.5 6.5 0 0 1 2.08-4.462 6.46 6.46 0 0 1 4.63-1.693 6.44 6.44 0 0 1 6.15 6.702c0 1.257-4.67 128.889 48.66 291.772 49.17 150.127 159.04 361.817 403.39 517.937a6.435 6.435 0 0 1 2.73 7.26 6.4 6.4 0 0 1-2.33 3.35 6.4 6.4 0 0 1-3.89 1.28"/><path fill="#FD603D" d="M2293.73 1280.32c-1.31 0-2.6-.41-3.67-1.16-122-84.45-193.34-180.02-231.65-245.31-41.66-70.885-54.26-121.248-54.78-123.375a6.5 6.5 0 0 1-.1-2.515 6.5 6.5 0 0 1 .86-2.365 6.43 6.43 0 0 1 6.5-3.026 6.4 6.4 0 0 1 2.36.862c.72.44 1.36 1.018 1.86 1.701.5.684.86 1.459 1.06 2.282.48 1.998 51.88 202.386 281.23 361.146 1.14.78 2 1.9 2.45 3.21a6.46 6.46 0 0 1-2.28 7.31 6.47 6.47 0 0 1-3.84 1.24"/><path fill="#FD603D" d="M2275.75 1172.18c-.64 0-1.28-.1-1.9-.29-128.4-38.95-157.34-188.174-157.63-189.688-.15-.834-.14-1.69.04-2.519a6.45 6.45 0 0 1 2.79-4.072 6.46 6.46 0 0 1 4.86-.9 6.4 6.4 0 0 1 4.07 2.799c.47.711.78 1.506.94 2.34.26 1.45 27.87 143.03 148.7 179.73 1.47.46 2.73 1.43 3.55 2.73s1.14 2.85.92 4.37a6.45 6.45 0 0 1-6.34 5.5"/><path fill="#7CD524" d="M577.291 1406.44a6.6 6.6 0 0 1-2.504-.3 6.3 6.3 0 0 1-2.199-1.24 6.4 6.4 0 0 1-1.559-1.98 6.5 6.5 0 0 1-.682-2.43 6.48 6.48 0 0 1 1.535-4.7 6.6 6.6 0 0 1 1.982-1.56 6.6 6.6 0 0 1 2.428-.68c204.611-32.22 317.163-158.79 375.549-259.29 63.379-109.17 78.429-211.766 78.589-212.668a6.5 6.5 0 0 1 2.53-4.292 6.5 6.5 0 0 1 9.11 1.275 6.5 6.5 0 0 1 1.25 4.822c-.16 1.063-15.56 106.143-80.201 217.463-38.022 65.45-85.389 120.32-140.811 163.05-69.31 53.45-151.444 87.93-243.889 102.5z"/><path fill="#7CD524" d="M640.355 1302.84a6.47 6.47 0 0 1-4.223-1.57 6.447 6.447 0 0 1 2.418-11.06c201.775-59.22 278.979-229 279.753-230.71.342-.77.834-1.47 1.447-2.06a6.4 6.4 0 0 1 2.125-1.34c.79-.31 1.632-.45 2.479-.43.846.02 1.681.2 2.455.55.774.34 1.474.83 2.058 1.44a6.5 6.5 0 0 1 1.347 2.13 6.44 6.44 0 0 1-.118 4.93c-.806 1.81-20.075 44.86-65.282 95.99a476.2 476.2 0 0 1-222.623 141.78c-.59.21-1.21.33-1.836.35m45.041-94.6a6.5 6.5 0 0 1-4.76-1.4 6.476 6.476 0 0 1-.98-9.11 6.47 6.47 0 0 1 4.354-2.38c66.604-15.02 117.353-82.46 117.869-83.13a6.48 6.48 0 0 1 9.103-1.24 6.49 6.49 0 0 1 1.24 9.1c-2.159 2.93-54.036 71.95-125.376 88.06-.479.08-.965.11-1.45.1"/><path fill="#0C106F" d="M1317.18 1302.07c6.97 0 12.63-12.18 12.63-27.19 0-15.02-5.66-27.2-12.63-27.2-6.98 0-12.64 12.18-12.64 27.2 0 15.01 5.66 27.19 12.64 27.19m270.15-22.33c5.37 0 9.73-11.96 9.73-26.71s-4.36-26.71-9.73-26.71c-5.38 0-9.73 11.96-9.73 26.71s4.35 26.71 9.73 26.71"/></svg>