<svg width="32" height="32" viewBox="0 0 32 32" fill="currentColor" xmlns="http://www.w3.org/2000/svg">
<path d="M6 5C4.93913 5 3.92172 5.42143 3.17157 6.17157C2.42143 6.92172 2 7.93913 2 9V10H30V9C30 7.93913 29.5786 6.92172 28.8284 6.17157C28.0783 5.42143 27.0609 5 26 5H6Z" fill="currentColor" fill-opacity="1"/>
<path fill-rule="evenodd" clip-rule="evenodd" d="M30 13H2V23C2 24.0609 2.42143 25.0783 3.17157 25.8284C3.92172 26.5786 4.93913 27 6 27H26C27.0609 27 28.0783 26.5786 28.8284 25.8284C29.5786 25.0783 30 24.0609 30 23V13ZM6 18C6 17.7348 6.10536 17.4804 6.29289 17.2929C6.48043 17.1054 6.73478 17 7 17H15C15.2652 17 15.5196 17.1054 15.7071 17.2929C15.8946 17.4804 16 17.7348 16 18C16 18.2652 15.8946 18.5196 15.7071 18.7071C15.5196 18.8946 15.2652 19 15 19H7C6.73478 19 6.48043 18.8946 6.29289 18.7071C6.10536 18.5196 6 18.2652 6 18ZM7 21C6.73478 21 6.48043 21.1054 6.29289 21.2929C6.10536 21.4804 6 21.7348 6 22C6 22.2652 6.10536 22.5196 6.29289 22.7071C6.48043 22.8946 6.73478 23 7 23H11C11.2652 23 11.5196 22.8946 11.7071 22.7071C11.8946 22.5196 12 22.2652 12 22C12 21.7348 11.8946 21.4804 11.7071 21.2929C11.5196 21.1054 11.2652 21 11 21H7Z" fill="currentColor" fill-opacity="1"/>
</svg>
