<svg width="32" height="32" viewBox="0 0 32 32" fill="currentColor" xmlns="http://www.w3.org/2000/svg">
<path fill-rule="evenodd" clip-rule="evenodd" d="M2 13.1093V15.5C2 16.8813 3.12 18 4.5 18H27.5C28.88 18 30 16.88 30 15.5V13.1093C30 12.1547 29.6585 11.2316 29.0373 10.5067L24.6573 5.39733C24.2818 4.9591 23.8159 4.60731 23.2917 4.36611C22.7674 4.12491 22.1971 4.00002 21.62 4H10.38C9.80289 4.00002 9.23263 4.12491 8.70834 4.36611C8.18406 4.60731 7.71817 4.9591 7.34267 5.39733L2.96267 10.5067C2.34148 11.2316 2.00003 12.1547 2 13.1093ZM10.38 6C10.0914 6.00001 9.80631 6.06246 9.54417 6.18306C9.28203 6.30365 9.04909 6.47955 8.86133 6.69867L5.17467 11H9.39467C10.0532 11 10.7015 11.1627 11.282 11.4734C11.8626 11.7842 12.3574 12.2334 12.7227 12.7813L12.9413 13.1093C13.124 13.3833 13.3714 13.6079 13.6617 13.7633C13.9519 13.9187 14.2761 14 14.6053 14H17.3947C17.7239 14 18.0481 13.9187 18.3383 13.7633C18.6286 13.6079 18.876 13.3833 19.0587 13.1093L19.2773 12.7813C19.6426 12.2334 20.1374 11.7842 20.718 11.4734C21.2985 11.1627 21.9468 11 22.6053 11H26.8253L23.1387 6.69867C22.9509 6.47955 22.718 6.30365 22.4558 6.18306C22.1937 6.06246 21.9086 6.00001 21.62 6H10.38Z" fill="currentColor" fill-opacity="1"/>
<path d="M3.75067 20C2.784 20 2 20.784 2 21.7507V24C2 25.0609 2.42143 26.0783 3.17157 26.8284C3.92172 27.5786 4.93913 28 6 28H26C27.0609 28 28.0783 27.5786 28.8284 26.8284C29.5786 26.0783 30 25.0609 30 24V21.7493C30 20.784 29.216 20 28.2493 20H22.6053C21.9468 20 21.2985 20.1627 20.718 20.4734C20.1374 20.7842 19.6426 21.2334 19.2773 21.7813L19.0587 22.1093C18.876 22.3833 18.6286 22.6079 18.3383 22.7633C18.0481 22.9187 17.7239 23 17.3947 23H14.6053C14.2761 23 13.9519 22.9187 13.6617 22.7633C13.3714 22.6079 13.124 22.3833 12.9413 22.1093L12.7227 21.7813C12.3574 21.2334 11.8626 20.7842 11.282 20.4734C10.7015 20.1627 10.0532 20 9.39467 20H3.75067Z" fill="currentColor" fill-opacity="1"/>
</svg>
