<svg width="21" height="21" viewBox="0 0 21 21" fill="none" xmlns="http://www.w3.org/2000/svg">
<path d="M12.9894 14.8437C14.5421 14.6599 16.0676 14.2934 17.5344 13.752C16.2922 12.376 15.6058 10.5875 15.6086 8.7337V8.1087C15.6086 6.78262 15.0818 5.51085 14.1441 4.57317C13.2064 3.63549 11.9347 3.1087 10.6086 3.1087C9.2825 3.1087 8.01073 3.63549 7.07305 4.57317C6.13536 5.51085 5.60858 6.78262 5.60858 8.1087V8.7337C5.61109 10.5876 4.9244 12.3762 3.68191 13.752C5.12608 14.2854 6.64858 14.6562 8.22775 14.8437M12.9894 14.8437C11.4077 15.0313 9.80943 15.0313 8.22775 14.8437M12.9894 14.8437C13.1095 15.2186 13.1394 15.6165 13.0766 16.0051C13.0138 16.3937 12.8601 16.762 12.6281 17.08C12.396 17.398 12.0922 17.6567 11.7412 17.835C11.3903 18.0134 11.0022 18.1064 10.6086 18.1064C10.2149 18.1064 9.82685 18.0134 9.47592 17.835C9.12499 17.6567 8.82114 17.398 8.5891 17.08C8.35706 16.762 8.20338 16.3937 8.14059 16.0051C8.0778 15.6165 8.10766 15.2186 8.22775 14.8437M3.21191 6.8587C3.44689 5.46284 4.07341 4.16241 5.01858 3.1087M16.1986 3.1087C17.1438 4.16241 17.7703 5.46284 18.0052 6.8587" stroke="black" stroke-opacity="0.63" stroke-width="1.5" stroke-linecap="round" stroke-linejoin="round"/>
</svg>
